%TF.GenerationSoftware,KiCad,Pcbnew,9.0.3*%
%TF.CreationDate,2025-09-25T17:41:31+02:00*%
%TF.ProjectId,SmartChessboard_PCB_V1,536d6172-7443-4686-9573-73626f617264,rev?*%
%TF.SameCoordinates,Original*%
%TF.FileFunction,Soldermask,Bot*%
%TF.FilePolarity,Negative*%
%FSLAX46Y46*%
G04 Gerber Fmt 4.6, Leading zero omitted, Abs format (unit mm)*
G04 Created by KiCad (PCBNEW 9.0.3) date 2025-09-25 17:41:31*
%MOMM*%
%LPD*%
G01*
G04 APERTURE LIST*
G04 APERTURE END LIST*
G36*
X49559017Y-232329561D02*
G01*
X49865139Y-232399431D01*
X50161514Y-232503137D01*
X50444413Y-232639374D01*
X50710280Y-232806430D01*
X50955770Y-233002202D01*
X51177798Y-233224230D01*
X51373570Y-233469720D01*
X51540626Y-233735587D01*
X51676863Y-234018486D01*
X51780569Y-234314861D01*
X51850439Y-234620983D01*
X51885595Y-234933003D01*
X51885595Y-235246997D01*
X51850439Y-235559017D01*
X51780569Y-235865139D01*
X51676863Y-236161514D01*
X51540626Y-236444413D01*
X51373570Y-236710280D01*
X51177798Y-236955770D01*
X50955770Y-237177798D01*
X50710280Y-237373570D01*
X50444413Y-237540626D01*
X50161514Y-237676863D01*
X49865139Y-237780569D01*
X49559017Y-237850439D01*
X49246997Y-237885595D01*
X48933003Y-237885595D01*
X48620983Y-237850439D01*
X48314861Y-237780569D01*
X48018486Y-237676863D01*
X47735587Y-237540626D01*
X47469720Y-237373570D01*
X47224230Y-237177798D01*
X47002202Y-236955770D01*
X46806430Y-236710280D01*
X46639374Y-236444413D01*
X46503137Y-236161514D01*
X46399431Y-235865139D01*
X46329561Y-235559017D01*
X46294405Y-235246997D01*
X46294405Y-234933003D01*
X46329561Y-234620983D01*
X46399431Y-234314861D01*
X46503137Y-234018486D01*
X46639374Y-233735587D01*
X46806430Y-233469720D01*
X47002202Y-233224230D01*
X47224230Y-233002202D01*
X47469720Y-232806430D01*
X47735587Y-232639374D01*
X48018486Y-232503137D01*
X48314861Y-232399431D01*
X48620983Y-232329561D01*
X48933003Y-232294405D01*
X49246997Y-232294405D01*
X49559017Y-232329561D01*
G37*
G36*
X235469017Y-232239561D02*
G01*
X235775139Y-232309431D01*
X236071514Y-232413137D01*
X236354413Y-232549374D01*
X236620280Y-232716430D01*
X236865770Y-232912202D01*
X237087798Y-233134230D01*
X237283570Y-233379720D01*
X237450626Y-233645587D01*
X237586863Y-233928486D01*
X237690569Y-234224861D01*
X237760439Y-234530983D01*
X237795595Y-234843003D01*
X237795595Y-235156997D01*
X237760439Y-235469017D01*
X237690569Y-235775139D01*
X237586863Y-236071514D01*
X237450626Y-236354413D01*
X237283570Y-236620280D01*
X237087798Y-236865770D01*
X236865770Y-237087798D01*
X236620280Y-237283570D01*
X236354413Y-237450626D01*
X236071514Y-237586863D01*
X235775139Y-237690569D01*
X235469017Y-237760439D01*
X235156997Y-237795595D01*
X234843003Y-237795595D01*
X234530983Y-237760439D01*
X234224861Y-237690569D01*
X233928486Y-237586863D01*
X233645587Y-237450626D01*
X233379720Y-237283570D01*
X233134230Y-237087798D01*
X232912202Y-236865770D01*
X232716430Y-236620280D01*
X232549374Y-236354413D01*
X232413137Y-236071514D01*
X232309431Y-235775139D01*
X232239561Y-235469017D01*
X232204405Y-235156997D01*
X232204405Y-234843003D01*
X232239561Y-234530983D01*
X232309431Y-234224861D01*
X232413137Y-233928486D01*
X232549374Y-233645587D01*
X232716430Y-233379720D01*
X232912202Y-233134230D01*
X233134230Y-232912202D01*
X233379720Y-232716430D01*
X233645587Y-232549374D01*
X233928486Y-232413137D01*
X234224861Y-232309431D01*
X234530983Y-232239561D01*
X234843003Y-232204405D01*
X235156997Y-232204405D01*
X235469017Y-232239561D01*
G37*
G36*
X138563268Y-210132612D02*
G01*
X138595711Y-210154289D01*
X138617388Y-210186732D01*
X138625000Y-210225000D01*
X138625000Y-211500000D01*
X138617388Y-211538268D01*
X138595711Y-211570711D01*
X138563268Y-211592388D01*
X138525000Y-211600000D01*
X138325000Y-211600000D01*
X138286732Y-211592388D01*
X138254289Y-211570711D01*
X138232612Y-211538268D01*
X138225000Y-211500000D01*
X138225000Y-210225000D01*
X138232612Y-210186732D01*
X138254289Y-210154289D01*
X138286732Y-210132612D01*
X138325000Y-210125000D01*
X138525000Y-210125000D01*
X138563268Y-210132612D01*
G37*
G36*
X139213268Y-210132612D02*
G01*
X139245711Y-210154289D01*
X139267388Y-210186732D01*
X139275000Y-210225000D01*
X139275000Y-211500000D01*
X139267388Y-211538268D01*
X139245711Y-211570711D01*
X139213268Y-211592388D01*
X139175000Y-211600000D01*
X138975000Y-211600000D01*
X138936732Y-211592388D01*
X138904289Y-211570711D01*
X138882612Y-211538268D01*
X138875000Y-211500000D01*
X138875000Y-210225000D01*
X138882612Y-210186732D01*
X138904289Y-210154289D01*
X138936732Y-210132612D01*
X138975000Y-210125000D01*
X139175000Y-210125000D01*
X139213268Y-210132612D01*
G37*
G36*
X139863268Y-210132612D02*
G01*
X139895711Y-210154289D01*
X139917388Y-210186732D01*
X139925000Y-210225000D01*
X139925000Y-211500000D01*
X139917388Y-211538268D01*
X139895711Y-211570711D01*
X139863268Y-211592388D01*
X139825000Y-211600000D01*
X139625000Y-211600000D01*
X139586732Y-211592388D01*
X139554289Y-211570711D01*
X139532612Y-211538268D01*
X139525000Y-211500000D01*
X139525000Y-210225000D01*
X139532612Y-210186732D01*
X139554289Y-210154289D01*
X139586732Y-210132612D01*
X139625000Y-210125000D01*
X139825000Y-210125000D01*
X139863268Y-210132612D01*
G37*
G36*
X140513268Y-210132612D02*
G01*
X140545711Y-210154289D01*
X140567388Y-210186732D01*
X140575000Y-210225000D01*
X140575000Y-211500000D01*
X140567388Y-211538268D01*
X140545711Y-211570711D01*
X140513268Y-211592388D01*
X140475000Y-211600000D01*
X140275000Y-211600000D01*
X140236732Y-211592388D01*
X140204289Y-211570711D01*
X140182612Y-211538268D01*
X140175000Y-211500000D01*
X140175000Y-210225000D01*
X140182612Y-210186732D01*
X140204289Y-210154289D01*
X140236732Y-210132612D01*
X140275000Y-210125000D01*
X140475000Y-210125000D01*
X140513268Y-210132612D01*
G37*
G36*
X141163268Y-210132612D02*
G01*
X141195711Y-210154289D01*
X141217388Y-210186732D01*
X141225000Y-210225000D01*
X141225000Y-211500000D01*
X141217388Y-211538268D01*
X141195711Y-211570711D01*
X141163268Y-211592388D01*
X141125000Y-211600000D01*
X140925000Y-211600000D01*
X140886732Y-211592388D01*
X140854289Y-211570711D01*
X140832612Y-211538268D01*
X140825000Y-211500000D01*
X140825000Y-210225000D01*
X140832612Y-210186732D01*
X140854289Y-210154289D01*
X140886732Y-210132612D01*
X140925000Y-210125000D01*
X141125000Y-210125000D01*
X141163268Y-210132612D01*
G37*
G36*
X141813268Y-210132612D02*
G01*
X141845711Y-210154289D01*
X141867388Y-210186732D01*
X141875000Y-210225000D01*
X141875000Y-211500000D01*
X141867388Y-211538268D01*
X141845711Y-211570711D01*
X141813268Y-211592388D01*
X141775000Y-211600000D01*
X141575000Y-211600000D01*
X141536732Y-211592388D01*
X141504289Y-211570711D01*
X141482612Y-211538268D01*
X141475000Y-211500000D01*
X141475000Y-210225000D01*
X141482612Y-210186732D01*
X141504289Y-210154289D01*
X141536732Y-210132612D01*
X141575000Y-210125000D01*
X141775000Y-210125000D01*
X141813268Y-210132612D01*
G37*
G36*
X142463268Y-210132612D02*
G01*
X142495711Y-210154289D01*
X142517388Y-210186732D01*
X142525000Y-210225000D01*
X142525000Y-211500000D01*
X142517388Y-211538268D01*
X142495711Y-211570711D01*
X142463268Y-211592388D01*
X142425000Y-211600000D01*
X142225000Y-211600000D01*
X142186732Y-211592388D01*
X142154289Y-211570711D01*
X142132612Y-211538268D01*
X142125000Y-211500000D01*
X142125000Y-210225000D01*
X142132612Y-210186732D01*
X142154289Y-210154289D01*
X142186732Y-210132612D01*
X142225000Y-210125000D01*
X142425000Y-210125000D01*
X142463268Y-210132612D01*
G37*
G36*
X143113268Y-210132612D02*
G01*
X143145711Y-210154289D01*
X143167388Y-210186732D01*
X143175000Y-210225000D01*
X143175000Y-211500000D01*
X143167388Y-211538268D01*
X143145711Y-211570711D01*
X143113268Y-211592388D01*
X143075000Y-211600000D01*
X142875000Y-211600000D01*
X142836732Y-211592388D01*
X142804289Y-211570711D01*
X142782612Y-211538268D01*
X142775000Y-211500000D01*
X142775000Y-210225000D01*
X142782612Y-210186732D01*
X142804289Y-210154289D01*
X142836732Y-210132612D01*
X142875000Y-210125000D01*
X143075000Y-210125000D01*
X143113268Y-210132612D01*
G37*
G36*
X143763268Y-210132612D02*
G01*
X143795711Y-210154289D01*
X143817388Y-210186732D01*
X143825000Y-210225000D01*
X143825000Y-211500000D01*
X143817388Y-211538268D01*
X143795711Y-211570711D01*
X143763268Y-211592388D01*
X143725000Y-211600000D01*
X143525000Y-211600000D01*
X143486732Y-211592388D01*
X143454289Y-211570711D01*
X143432612Y-211538268D01*
X143425000Y-211500000D01*
X143425000Y-210225000D01*
X143432612Y-210186732D01*
X143454289Y-210154289D01*
X143486732Y-210132612D01*
X143525000Y-210125000D01*
X143725000Y-210125000D01*
X143763268Y-210132612D01*
G37*
G36*
X144413268Y-210132612D02*
G01*
X144445711Y-210154289D01*
X144467388Y-210186732D01*
X144475000Y-210225000D01*
X144475000Y-211500000D01*
X144467388Y-211538268D01*
X144445711Y-211570711D01*
X144413268Y-211592388D01*
X144375000Y-211600000D01*
X144175000Y-211600000D01*
X144136732Y-211592388D01*
X144104289Y-211570711D01*
X144082612Y-211538268D01*
X144075000Y-211500000D01*
X144075000Y-210225000D01*
X144082612Y-210186732D01*
X144104289Y-210154289D01*
X144136732Y-210132612D01*
X144175000Y-210125000D01*
X144375000Y-210125000D01*
X144413268Y-210132612D01*
G37*
G36*
X145063268Y-210132612D02*
G01*
X145095711Y-210154289D01*
X145117388Y-210186732D01*
X145125000Y-210225000D01*
X145125000Y-211500000D01*
X145117388Y-211538268D01*
X145095711Y-211570711D01*
X145063268Y-211592388D01*
X145025000Y-211600000D01*
X144825000Y-211600000D01*
X144786732Y-211592388D01*
X144754289Y-211570711D01*
X144732612Y-211538268D01*
X144725000Y-211500000D01*
X144725000Y-210225000D01*
X144732612Y-210186732D01*
X144754289Y-210154289D01*
X144786732Y-210132612D01*
X144825000Y-210125000D01*
X145025000Y-210125000D01*
X145063268Y-210132612D01*
G37*
G36*
X145713268Y-210132612D02*
G01*
X145745711Y-210154289D01*
X145767388Y-210186732D01*
X145775000Y-210225000D01*
X145775000Y-211500000D01*
X145767388Y-211538268D01*
X145745711Y-211570711D01*
X145713268Y-211592388D01*
X145675000Y-211600000D01*
X145475000Y-211600000D01*
X145436732Y-211592388D01*
X145404289Y-211570711D01*
X145382612Y-211538268D01*
X145375000Y-211500000D01*
X145375000Y-210225000D01*
X145382612Y-210186732D01*
X145404289Y-210154289D01*
X145436732Y-210132612D01*
X145475000Y-210125000D01*
X145675000Y-210125000D01*
X145713268Y-210132612D01*
G37*
G36*
X137473576Y-210940657D02*
G01*
X137518995Y-210971005D01*
X137549343Y-211016424D01*
X137560000Y-211070000D01*
X137560000Y-211350000D01*
X137549343Y-211403576D01*
X137518995Y-211448995D01*
X137473576Y-211479343D01*
X137420000Y-211490000D01*
X137080000Y-211490000D01*
X137026424Y-211479343D01*
X136981005Y-211448995D01*
X136950657Y-211403576D01*
X136940000Y-211350000D01*
X136940000Y-211070000D01*
X136950657Y-211016424D01*
X136981005Y-210971005D01*
X137026424Y-210940657D01*
X137080000Y-210930000D01*
X137420000Y-210930000D01*
X137473576Y-210940657D01*
G37*
G36*
X137473576Y-209980657D02*
G01*
X137518995Y-210011005D01*
X137549343Y-210056424D01*
X137560000Y-210110000D01*
X137560000Y-210390000D01*
X137549343Y-210443576D01*
X137518995Y-210488995D01*
X137473576Y-210519343D01*
X137420000Y-210530000D01*
X137080000Y-210530000D01*
X137026424Y-210519343D01*
X136981005Y-210488995D01*
X136950657Y-210443576D01*
X136940000Y-210390000D01*
X136940000Y-210110000D01*
X136950657Y-210056424D01*
X136981005Y-210011005D01*
X137026424Y-209980657D01*
X137080000Y-209970000D01*
X137420000Y-209970000D01*
X137473576Y-209980657D01*
G37*
G36*
X146986662Y-208240276D02*
G01*
X147030459Y-208269541D01*
X147059724Y-208313338D01*
X147070000Y-208365000D01*
X147070000Y-208635000D01*
X147059724Y-208686662D01*
X147030459Y-208730459D01*
X146986662Y-208759724D01*
X146935000Y-208770000D01*
X146565000Y-208770000D01*
X146513338Y-208759724D01*
X146469541Y-208730459D01*
X146440276Y-208686662D01*
X146430000Y-208635000D01*
X146430000Y-208365000D01*
X146440276Y-208313338D01*
X146469541Y-208269541D01*
X146513338Y-208240276D01*
X146565000Y-208230000D01*
X146935000Y-208230000D01*
X146986662Y-208240276D01*
G37*
G36*
X146986662Y-207220276D02*
G01*
X147030459Y-207249541D01*
X147059724Y-207293338D01*
X147070000Y-207345000D01*
X147070000Y-207615000D01*
X147059724Y-207666662D01*
X147030459Y-207710459D01*
X146986662Y-207739724D01*
X146935000Y-207750000D01*
X146565000Y-207750000D01*
X146513338Y-207739724D01*
X146469541Y-207710459D01*
X146440276Y-207666662D01*
X146430000Y-207615000D01*
X146430000Y-207345000D01*
X146440276Y-207293338D01*
X146469541Y-207249541D01*
X146513338Y-207220276D01*
X146565000Y-207210000D01*
X146935000Y-207210000D01*
X146986662Y-207220276D01*
G37*
G36*
X138563268Y-204407612D02*
G01*
X138595711Y-204429289D01*
X138617388Y-204461732D01*
X138625000Y-204500000D01*
X138625000Y-205775000D01*
X138617388Y-205813268D01*
X138595711Y-205845711D01*
X138563268Y-205867388D01*
X138525000Y-205875000D01*
X138325000Y-205875000D01*
X138286732Y-205867388D01*
X138254289Y-205845711D01*
X138232612Y-205813268D01*
X138225000Y-205775000D01*
X138225000Y-204500000D01*
X138232612Y-204461732D01*
X138254289Y-204429289D01*
X138286732Y-204407612D01*
X138325000Y-204400000D01*
X138525000Y-204400000D01*
X138563268Y-204407612D01*
G37*
G36*
X139213268Y-204407612D02*
G01*
X139245711Y-204429289D01*
X139267388Y-204461732D01*
X139275000Y-204500000D01*
X139275000Y-205775000D01*
X139267388Y-205813268D01*
X139245711Y-205845711D01*
X139213268Y-205867388D01*
X139175000Y-205875000D01*
X138975000Y-205875000D01*
X138936732Y-205867388D01*
X138904289Y-205845711D01*
X138882612Y-205813268D01*
X138875000Y-205775000D01*
X138875000Y-204500000D01*
X138882612Y-204461732D01*
X138904289Y-204429289D01*
X138936732Y-204407612D01*
X138975000Y-204400000D01*
X139175000Y-204400000D01*
X139213268Y-204407612D01*
G37*
G36*
X139863268Y-204407612D02*
G01*
X139895711Y-204429289D01*
X139917388Y-204461732D01*
X139925000Y-204500000D01*
X139925000Y-205775000D01*
X139917388Y-205813268D01*
X139895711Y-205845711D01*
X139863268Y-205867388D01*
X139825000Y-205875000D01*
X139625000Y-205875000D01*
X139586732Y-205867388D01*
X139554289Y-205845711D01*
X139532612Y-205813268D01*
X139525000Y-205775000D01*
X139525000Y-204500000D01*
X139532612Y-204461732D01*
X139554289Y-204429289D01*
X139586732Y-204407612D01*
X139625000Y-204400000D01*
X139825000Y-204400000D01*
X139863268Y-204407612D01*
G37*
G36*
X140513268Y-204407612D02*
G01*
X140545711Y-204429289D01*
X140567388Y-204461732D01*
X140575000Y-204500000D01*
X140575000Y-205775000D01*
X140567388Y-205813268D01*
X140545711Y-205845711D01*
X140513268Y-205867388D01*
X140475000Y-205875000D01*
X140275000Y-205875000D01*
X140236732Y-205867388D01*
X140204289Y-205845711D01*
X140182612Y-205813268D01*
X140175000Y-205775000D01*
X140175000Y-204500000D01*
X140182612Y-204461732D01*
X140204289Y-204429289D01*
X140236732Y-204407612D01*
X140275000Y-204400000D01*
X140475000Y-204400000D01*
X140513268Y-204407612D01*
G37*
G36*
X141163268Y-204407612D02*
G01*
X141195711Y-204429289D01*
X141217388Y-204461732D01*
X141225000Y-204500000D01*
X141225000Y-205775000D01*
X141217388Y-205813268D01*
X141195711Y-205845711D01*
X141163268Y-205867388D01*
X141125000Y-205875000D01*
X140925000Y-205875000D01*
X140886732Y-205867388D01*
X140854289Y-205845711D01*
X140832612Y-205813268D01*
X140825000Y-205775000D01*
X140825000Y-204500000D01*
X140832612Y-204461732D01*
X140854289Y-204429289D01*
X140886732Y-204407612D01*
X140925000Y-204400000D01*
X141125000Y-204400000D01*
X141163268Y-204407612D01*
G37*
G36*
X141813268Y-204407612D02*
G01*
X141845711Y-204429289D01*
X141867388Y-204461732D01*
X141875000Y-204500000D01*
X141875000Y-205775000D01*
X141867388Y-205813268D01*
X141845711Y-205845711D01*
X141813268Y-205867388D01*
X141775000Y-205875000D01*
X141575000Y-205875000D01*
X141536732Y-205867388D01*
X141504289Y-205845711D01*
X141482612Y-205813268D01*
X141475000Y-205775000D01*
X141475000Y-204500000D01*
X141482612Y-204461732D01*
X141504289Y-204429289D01*
X141536732Y-204407612D01*
X141575000Y-204400000D01*
X141775000Y-204400000D01*
X141813268Y-204407612D01*
G37*
G36*
X142463268Y-204407612D02*
G01*
X142495711Y-204429289D01*
X142517388Y-204461732D01*
X142525000Y-204500000D01*
X142525000Y-205775000D01*
X142517388Y-205813268D01*
X142495711Y-205845711D01*
X142463268Y-205867388D01*
X142425000Y-205875000D01*
X142225000Y-205875000D01*
X142186732Y-205867388D01*
X142154289Y-205845711D01*
X142132612Y-205813268D01*
X142125000Y-205775000D01*
X142125000Y-204500000D01*
X142132612Y-204461732D01*
X142154289Y-204429289D01*
X142186732Y-204407612D01*
X142225000Y-204400000D01*
X142425000Y-204400000D01*
X142463268Y-204407612D01*
G37*
G36*
X143113268Y-204407612D02*
G01*
X143145711Y-204429289D01*
X143167388Y-204461732D01*
X143175000Y-204500000D01*
X143175000Y-205775000D01*
X143167388Y-205813268D01*
X143145711Y-205845711D01*
X143113268Y-205867388D01*
X143075000Y-205875000D01*
X142875000Y-205875000D01*
X142836732Y-205867388D01*
X142804289Y-205845711D01*
X142782612Y-205813268D01*
X142775000Y-205775000D01*
X142775000Y-204500000D01*
X142782612Y-204461732D01*
X142804289Y-204429289D01*
X142836732Y-204407612D01*
X142875000Y-204400000D01*
X143075000Y-204400000D01*
X143113268Y-204407612D01*
G37*
G36*
X143763268Y-204407612D02*
G01*
X143795711Y-204429289D01*
X143817388Y-204461732D01*
X143825000Y-204500000D01*
X143825000Y-205775000D01*
X143817388Y-205813268D01*
X143795711Y-205845711D01*
X143763268Y-205867388D01*
X143725000Y-205875000D01*
X143525000Y-205875000D01*
X143486732Y-205867388D01*
X143454289Y-205845711D01*
X143432612Y-205813268D01*
X143425000Y-205775000D01*
X143425000Y-204500000D01*
X143432612Y-204461732D01*
X143454289Y-204429289D01*
X143486732Y-204407612D01*
X143525000Y-204400000D01*
X143725000Y-204400000D01*
X143763268Y-204407612D01*
G37*
G36*
X144413268Y-204407612D02*
G01*
X144445711Y-204429289D01*
X144467388Y-204461732D01*
X144475000Y-204500000D01*
X144475000Y-205775000D01*
X144467388Y-205813268D01*
X144445711Y-205845711D01*
X144413268Y-205867388D01*
X144375000Y-205875000D01*
X144175000Y-205875000D01*
X144136732Y-205867388D01*
X144104289Y-205845711D01*
X144082612Y-205813268D01*
X144075000Y-205775000D01*
X144075000Y-204500000D01*
X144082612Y-204461732D01*
X144104289Y-204429289D01*
X144136732Y-204407612D01*
X144175000Y-204400000D01*
X144375000Y-204400000D01*
X144413268Y-204407612D01*
G37*
G36*
X145063268Y-204407612D02*
G01*
X145095711Y-204429289D01*
X145117388Y-204461732D01*
X145125000Y-204500000D01*
X145125000Y-205775000D01*
X145117388Y-205813268D01*
X145095711Y-205845711D01*
X145063268Y-205867388D01*
X145025000Y-205875000D01*
X144825000Y-205875000D01*
X144786732Y-205867388D01*
X144754289Y-205845711D01*
X144732612Y-205813268D01*
X144725000Y-205775000D01*
X144725000Y-204500000D01*
X144732612Y-204461732D01*
X144754289Y-204429289D01*
X144786732Y-204407612D01*
X144825000Y-204400000D01*
X145025000Y-204400000D01*
X145063268Y-204407612D01*
G37*
G36*
X145713268Y-204407612D02*
G01*
X145745711Y-204429289D01*
X145767388Y-204461732D01*
X145775000Y-204500000D01*
X145775000Y-205775000D01*
X145767388Y-205813268D01*
X145745711Y-205845711D01*
X145713268Y-205867388D01*
X145675000Y-205875000D01*
X145475000Y-205875000D01*
X145436732Y-205867388D01*
X145404289Y-205845711D01*
X145382612Y-205813268D01*
X145375000Y-205775000D01*
X145375000Y-204500000D01*
X145382612Y-204461732D01*
X145404289Y-204429289D01*
X145436732Y-204407612D01*
X145475000Y-204400000D01*
X145675000Y-204400000D01*
X145713268Y-204407612D01*
G37*
G36*
X138563268Y-166132612D02*
G01*
X138595711Y-166154289D01*
X138617388Y-166186732D01*
X138625000Y-166225000D01*
X138625000Y-167500000D01*
X138617388Y-167538268D01*
X138595711Y-167570711D01*
X138563268Y-167592388D01*
X138525000Y-167600000D01*
X138325000Y-167600000D01*
X138286732Y-167592388D01*
X138254289Y-167570711D01*
X138232612Y-167538268D01*
X138225000Y-167500000D01*
X138225000Y-166225000D01*
X138232612Y-166186732D01*
X138254289Y-166154289D01*
X138286732Y-166132612D01*
X138325000Y-166125000D01*
X138525000Y-166125000D01*
X138563268Y-166132612D01*
G37*
G36*
X139213268Y-166132612D02*
G01*
X139245711Y-166154289D01*
X139267388Y-166186732D01*
X139275000Y-166225000D01*
X139275000Y-167500000D01*
X139267388Y-167538268D01*
X139245711Y-167570711D01*
X139213268Y-167592388D01*
X139175000Y-167600000D01*
X138975000Y-167600000D01*
X138936732Y-167592388D01*
X138904289Y-167570711D01*
X138882612Y-167538268D01*
X138875000Y-167500000D01*
X138875000Y-166225000D01*
X138882612Y-166186732D01*
X138904289Y-166154289D01*
X138936732Y-166132612D01*
X138975000Y-166125000D01*
X139175000Y-166125000D01*
X139213268Y-166132612D01*
G37*
G36*
X139863268Y-166132612D02*
G01*
X139895711Y-166154289D01*
X139917388Y-166186732D01*
X139925000Y-166225000D01*
X139925000Y-167500000D01*
X139917388Y-167538268D01*
X139895711Y-167570711D01*
X139863268Y-167592388D01*
X139825000Y-167600000D01*
X139625000Y-167600000D01*
X139586732Y-167592388D01*
X139554289Y-167570711D01*
X139532612Y-167538268D01*
X139525000Y-167500000D01*
X139525000Y-166225000D01*
X139532612Y-166186732D01*
X139554289Y-166154289D01*
X139586732Y-166132612D01*
X139625000Y-166125000D01*
X139825000Y-166125000D01*
X139863268Y-166132612D01*
G37*
G36*
X140513268Y-166132612D02*
G01*
X140545711Y-166154289D01*
X140567388Y-166186732D01*
X140575000Y-166225000D01*
X140575000Y-167500000D01*
X140567388Y-167538268D01*
X140545711Y-167570711D01*
X140513268Y-167592388D01*
X140475000Y-167600000D01*
X140275000Y-167600000D01*
X140236732Y-167592388D01*
X140204289Y-167570711D01*
X140182612Y-167538268D01*
X140175000Y-167500000D01*
X140175000Y-166225000D01*
X140182612Y-166186732D01*
X140204289Y-166154289D01*
X140236732Y-166132612D01*
X140275000Y-166125000D01*
X140475000Y-166125000D01*
X140513268Y-166132612D01*
G37*
G36*
X141163268Y-166132612D02*
G01*
X141195711Y-166154289D01*
X141217388Y-166186732D01*
X141225000Y-166225000D01*
X141225000Y-167500000D01*
X141217388Y-167538268D01*
X141195711Y-167570711D01*
X141163268Y-167592388D01*
X141125000Y-167600000D01*
X140925000Y-167600000D01*
X140886732Y-167592388D01*
X140854289Y-167570711D01*
X140832612Y-167538268D01*
X140825000Y-167500000D01*
X140825000Y-166225000D01*
X140832612Y-166186732D01*
X140854289Y-166154289D01*
X140886732Y-166132612D01*
X140925000Y-166125000D01*
X141125000Y-166125000D01*
X141163268Y-166132612D01*
G37*
G36*
X141813268Y-166132612D02*
G01*
X141845711Y-166154289D01*
X141867388Y-166186732D01*
X141875000Y-166225000D01*
X141875000Y-167500000D01*
X141867388Y-167538268D01*
X141845711Y-167570711D01*
X141813268Y-167592388D01*
X141775000Y-167600000D01*
X141575000Y-167600000D01*
X141536732Y-167592388D01*
X141504289Y-167570711D01*
X141482612Y-167538268D01*
X141475000Y-167500000D01*
X141475000Y-166225000D01*
X141482612Y-166186732D01*
X141504289Y-166154289D01*
X141536732Y-166132612D01*
X141575000Y-166125000D01*
X141775000Y-166125000D01*
X141813268Y-166132612D01*
G37*
G36*
X142463268Y-166132612D02*
G01*
X142495711Y-166154289D01*
X142517388Y-166186732D01*
X142525000Y-166225000D01*
X142525000Y-167500000D01*
X142517388Y-167538268D01*
X142495711Y-167570711D01*
X142463268Y-167592388D01*
X142425000Y-167600000D01*
X142225000Y-167600000D01*
X142186732Y-167592388D01*
X142154289Y-167570711D01*
X142132612Y-167538268D01*
X142125000Y-167500000D01*
X142125000Y-166225000D01*
X142132612Y-166186732D01*
X142154289Y-166154289D01*
X142186732Y-166132612D01*
X142225000Y-166125000D01*
X142425000Y-166125000D01*
X142463268Y-166132612D01*
G37*
G36*
X143113268Y-166132612D02*
G01*
X143145711Y-166154289D01*
X143167388Y-166186732D01*
X143175000Y-166225000D01*
X143175000Y-167500000D01*
X143167388Y-167538268D01*
X143145711Y-167570711D01*
X143113268Y-167592388D01*
X143075000Y-167600000D01*
X142875000Y-167600000D01*
X142836732Y-167592388D01*
X142804289Y-167570711D01*
X142782612Y-167538268D01*
X142775000Y-167500000D01*
X142775000Y-166225000D01*
X142782612Y-166186732D01*
X142804289Y-166154289D01*
X142836732Y-166132612D01*
X142875000Y-166125000D01*
X143075000Y-166125000D01*
X143113268Y-166132612D01*
G37*
G36*
X143763268Y-166132612D02*
G01*
X143795711Y-166154289D01*
X143817388Y-166186732D01*
X143825000Y-166225000D01*
X143825000Y-167500000D01*
X143817388Y-167538268D01*
X143795711Y-167570711D01*
X143763268Y-167592388D01*
X143725000Y-167600000D01*
X143525000Y-167600000D01*
X143486732Y-167592388D01*
X143454289Y-167570711D01*
X143432612Y-167538268D01*
X143425000Y-167500000D01*
X143425000Y-166225000D01*
X143432612Y-166186732D01*
X143454289Y-166154289D01*
X143486732Y-166132612D01*
X143525000Y-166125000D01*
X143725000Y-166125000D01*
X143763268Y-166132612D01*
G37*
G36*
X144413268Y-166132612D02*
G01*
X144445711Y-166154289D01*
X144467388Y-166186732D01*
X144475000Y-166225000D01*
X144475000Y-167500000D01*
X144467388Y-167538268D01*
X144445711Y-167570711D01*
X144413268Y-167592388D01*
X144375000Y-167600000D01*
X144175000Y-167600000D01*
X144136732Y-167592388D01*
X144104289Y-167570711D01*
X144082612Y-167538268D01*
X144075000Y-167500000D01*
X144075000Y-166225000D01*
X144082612Y-166186732D01*
X144104289Y-166154289D01*
X144136732Y-166132612D01*
X144175000Y-166125000D01*
X144375000Y-166125000D01*
X144413268Y-166132612D01*
G37*
G36*
X145063268Y-166132612D02*
G01*
X145095711Y-166154289D01*
X145117388Y-166186732D01*
X145125000Y-166225000D01*
X145125000Y-167500000D01*
X145117388Y-167538268D01*
X145095711Y-167570711D01*
X145063268Y-167592388D01*
X145025000Y-167600000D01*
X144825000Y-167600000D01*
X144786732Y-167592388D01*
X144754289Y-167570711D01*
X144732612Y-167538268D01*
X144725000Y-167500000D01*
X144725000Y-166225000D01*
X144732612Y-166186732D01*
X144754289Y-166154289D01*
X144786732Y-166132612D01*
X144825000Y-166125000D01*
X145025000Y-166125000D01*
X145063268Y-166132612D01*
G37*
G36*
X145713268Y-166132612D02*
G01*
X145745711Y-166154289D01*
X145767388Y-166186732D01*
X145775000Y-166225000D01*
X145775000Y-167500000D01*
X145767388Y-167538268D01*
X145745711Y-167570711D01*
X145713268Y-167592388D01*
X145675000Y-167600000D01*
X145475000Y-167600000D01*
X145436732Y-167592388D01*
X145404289Y-167570711D01*
X145382612Y-167538268D01*
X145375000Y-167500000D01*
X145375000Y-166225000D01*
X145382612Y-166186732D01*
X145404289Y-166154289D01*
X145436732Y-166132612D01*
X145475000Y-166125000D01*
X145675000Y-166125000D01*
X145713268Y-166132612D01*
G37*
G36*
X137473576Y-166940657D02*
G01*
X137518995Y-166971005D01*
X137549343Y-167016424D01*
X137560000Y-167070000D01*
X137560000Y-167350000D01*
X137549343Y-167403576D01*
X137518995Y-167448995D01*
X137473576Y-167479343D01*
X137420000Y-167490000D01*
X137080000Y-167490000D01*
X137026424Y-167479343D01*
X136981005Y-167448995D01*
X136950657Y-167403576D01*
X136940000Y-167350000D01*
X136940000Y-167070000D01*
X136950657Y-167016424D01*
X136981005Y-166971005D01*
X137026424Y-166940657D01*
X137080000Y-166930000D01*
X137420000Y-166930000D01*
X137473576Y-166940657D01*
G37*
G36*
X137473576Y-165980657D02*
G01*
X137518995Y-166011005D01*
X137549343Y-166056424D01*
X137560000Y-166110000D01*
X137560000Y-166390000D01*
X137549343Y-166443576D01*
X137518995Y-166488995D01*
X137473576Y-166519343D01*
X137420000Y-166530000D01*
X137080000Y-166530000D01*
X137026424Y-166519343D01*
X136981005Y-166488995D01*
X136950657Y-166443576D01*
X136940000Y-166390000D01*
X136940000Y-166110000D01*
X136950657Y-166056424D01*
X136981005Y-166011005D01*
X137026424Y-165980657D01*
X137080000Y-165970000D01*
X137420000Y-165970000D01*
X137473576Y-165980657D01*
G37*
G36*
X146986662Y-164240276D02*
G01*
X147030459Y-164269541D01*
X147059724Y-164313338D01*
X147070000Y-164365000D01*
X147070000Y-164635000D01*
X147059724Y-164686662D01*
X147030459Y-164730459D01*
X146986662Y-164759724D01*
X146935000Y-164770000D01*
X146565000Y-164770000D01*
X146513338Y-164759724D01*
X146469541Y-164730459D01*
X146440276Y-164686662D01*
X146430000Y-164635000D01*
X146430000Y-164365000D01*
X146440276Y-164313338D01*
X146469541Y-164269541D01*
X146513338Y-164240276D01*
X146565000Y-164230000D01*
X146935000Y-164230000D01*
X146986662Y-164240276D01*
G37*
G36*
X146986662Y-163220276D02*
G01*
X147030459Y-163249541D01*
X147059724Y-163293338D01*
X147070000Y-163345000D01*
X147070000Y-163615000D01*
X147059724Y-163666662D01*
X147030459Y-163710459D01*
X146986662Y-163739724D01*
X146935000Y-163750000D01*
X146565000Y-163750000D01*
X146513338Y-163739724D01*
X146469541Y-163710459D01*
X146440276Y-163666662D01*
X146430000Y-163615000D01*
X146430000Y-163345000D01*
X146440276Y-163293338D01*
X146469541Y-163249541D01*
X146513338Y-163220276D01*
X146565000Y-163210000D01*
X146935000Y-163210000D01*
X146986662Y-163220276D01*
G37*
G36*
X138563268Y-160407612D02*
G01*
X138595711Y-160429289D01*
X138617388Y-160461732D01*
X138625000Y-160500000D01*
X138625000Y-161775000D01*
X138617388Y-161813268D01*
X138595711Y-161845711D01*
X138563268Y-161867388D01*
X138525000Y-161875000D01*
X138325000Y-161875000D01*
X138286732Y-161867388D01*
X138254289Y-161845711D01*
X138232612Y-161813268D01*
X138225000Y-161775000D01*
X138225000Y-160500000D01*
X138232612Y-160461732D01*
X138254289Y-160429289D01*
X138286732Y-160407612D01*
X138325000Y-160400000D01*
X138525000Y-160400000D01*
X138563268Y-160407612D01*
G37*
G36*
X139213268Y-160407612D02*
G01*
X139245711Y-160429289D01*
X139267388Y-160461732D01*
X139275000Y-160500000D01*
X139275000Y-161775000D01*
X139267388Y-161813268D01*
X139245711Y-161845711D01*
X139213268Y-161867388D01*
X139175000Y-161875000D01*
X138975000Y-161875000D01*
X138936732Y-161867388D01*
X138904289Y-161845711D01*
X138882612Y-161813268D01*
X138875000Y-161775000D01*
X138875000Y-160500000D01*
X138882612Y-160461732D01*
X138904289Y-160429289D01*
X138936732Y-160407612D01*
X138975000Y-160400000D01*
X139175000Y-160400000D01*
X139213268Y-160407612D01*
G37*
G36*
X139863268Y-160407612D02*
G01*
X139895711Y-160429289D01*
X139917388Y-160461732D01*
X139925000Y-160500000D01*
X139925000Y-161775000D01*
X139917388Y-161813268D01*
X139895711Y-161845711D01*
X139863268Y-161867388D01*
X139825000Y-161875000D01*
X139625000Y-161875000D01*
X139586732Y-161867388D01*
X139554289Y-161845711D01*
X139532612Y-161813268D01*
X139525000Y-161775000D01*
X139525000Y-160500000D01*
X139532612Y-160461732D01*
X139554289Y-160429289D01*
X139586732Y-160407612D01*
X139625000Y-160400000D01*
X139825000Y-160400000D01*
X139863268Y-160407612D01*
G37*
G36*
X140513268Y-160407612D02*
G01*
X140545711Y-160429289D01*
X140567388Y-160461732D01*
X140575000Y-160500000D01*
X140575000Y-161775000D01*
X140567388Y-161813268D01*
X140545711Y-161845711D01*
X140513268Y-161867388D01*
X140475000Y-161875000D01*
X140275000Y-161875000D01*
X140236732Y-161867388D01*
X140204289Y-161845711D01*
X140182612Y-161813268D01*
X140175000Y-161775000D01*
X140175000Y-160500000D01*
X140182612Y-160461732D01*
X140204289Y-160429289D01*
X140236732Y-160407612D01*
X140275000Y-160400000D01*
X140475000Y-160400000D01*
X140513268Y-160407612D01*
G37*
G36*
X141163268Y-160407612D02*
G01*
X141195711Y-160429289D01*
X141217388Y-160461732D01*
X141225000Y-160500000D01*
X141225000Y-161775000D01*
X141217388Y-161813268D01*
X141195711Y-161845711D01*
X141163268Y-161867388D01*
X141125000Y-161875000D01*
X140925000Y-161875000D01*
X140886732Y-161867388D01*
X140854289Y-161845711D01*
X140832612Y-161813268D01*
X140825000Y-161775000D01*
X140825000Y-160500000D01*
X140832612Y-160461732D01*
X140854289Y-160429289D01*
X140886732Y-160407612D01*
X140925000Y-160400000D01*
X141125000Y-160400000D01*
X141163268Y-160407612D01*
G37*
G36*
X141813268Y-160407612D02*
G01*
X141845711Y-160429289D01*
X141867388Y-160461732D01*
X141875000Y-160500000D01*
X141875000Y-161775000D01*
X141867388Y-161813268D01*
X141845711Y-161845711D01*
X141813268Y-161867388D01*
X141775000Y-161875000D01*
X141575000Y-161875000D01*
X141536732Y-161867388D01*
X141504289Y-161845711D01*
X141482612Y-161813268D01*
X141475000Y-161775000D01*
X141475000Y-160500000D01*
X141482612Y-160461732D01*
X141504289Y-160429289D01*
X141536732Y-160407612D01*
X141575000Y-160400000D01*
X141775000Y-160400000D01*
X141813268Y-160407612D01*
G37*
G36*
X142463268Y-160407612D02*
G01*
X142495711Y-160429289D01*
X142517388Y-160461732D01*
X142525000Y-160500000D01*
X142525000Y-161775000D01*
X142517388Y-161813268D01*
X142495711Y-161845711D01*
X142463268Y-161867388D01*
X142425000Y-161875000D01*
X142225000Y-161875000D01*
X142186732Y-161867388D01*
X142154289Y-161845711D01*
X142132612Y-161813268D01*
X142125000Y-161775000D01*
X142125000Y-160500000D01*
X142132612Y-160461732D01*
X142154289Y-160429289D01*
X142186732Y-160407612D01*
X142225000Y-160400000D01*
X142425000Y-160400000D01*
X142463268Y-160407612D01*
G37*
G36*
X143113268Y-160407612D02*
G01*
X143145711Y-160429289D01*
X143167388Y-160461732D01*
X143175000Y-160500000D01*
X143175000Y-161775000D01*
X143167388Y-161813268D01*
X143145711Y-161845711D01*
X143113268Y-161867388D01*
X143075000Y-161875000D01*
X142875000Y-161875000D01*
X142836732Y-161867388D01*
X142804289Y-161845711D01*
X142782612Y-161813268D01*
X142775000Y-161775000D01*
X142775000Y-160500000D01*
X142782612Y-160461732D01*
X142804289Y-160429289D01*
X142836732Y-160407612D01*
X142875000Y-160400000D01*
X143075000Y-160400000D01*
X143113268Y-160407612D01*
G37*
G36*
X143763268Y-160407612D02*
G01*
X143795711Y-160429289D01*
X143817388Y-160461732D01*
X143825000Y-160500000D01*
X143825000Y-161775000D01*
X143817388Y-161813268D01*
X143795711Y-161845711D01*
X143763268Y-161867388D01*
X143725000Y-161875000D01*
X143525000Y-161875000D01*
X143486732Y-161867388D01*
X143454289Y-161845711D01*
X143432612Y-161813268D01*
X143425000Y-161775000D01*
X143425000Y-160500000D01*
X143432612Y-160461732D01*
X143454289Y-160429289D01*
X143486732Y-160407612D01*
X143525000Y-160400000D01*
X143725000Y-160400000D01*
X143763268Y-160407612D01*
G37*
G36*
X144413268Y-160407612D02*
G01*
X144445711Y-160429289D01*
X144467388Y-160461732D01*
X144475000Y-160500000D01*
X144475000Y-161775000D01*
X144467388Y-161813268D01*
X144445711Y-161845711D01*
X144413268Y-161867388D01*
X144375000Y-161875000D01*
X144175000Y-161875000D01*
X144136732Y-161867388D01*
X144104289Y-161845711D01*
X144082612Y-161813268D01*
X144075000Y-161775000D01*
X144075000Y-160500000D01*
X144082612Y-160461732D01*
X144104289Y-160429289D01*
X144136732Y-160407612D01*
X144175000Y-160400000D01*
X144375000Y-160400000D01*
X144413268Y-160407612D01*
G37*
G36*
X145063268Y-160407612D02*
G01*
X145095711Y-160429289D01*
X145117388Y-160461732D01*
X145125000Y-160500000D01*
X145125000Y-161775000D01*
X145117388Y-161813268D01*
X145095711Y-161845711D01*
X145063268Y-161867388D01*
X145025000Y-161875000D01*
X144825000Y-161875000D01*
X144786732Y-161867388D01*
X144754289Y-161845711D01*
X144732612Y-161813268D01*
X144725000Y-161775000D01*
X144725000Y-160500000D01*
X144732612Y-160461732D01*
X144754289Y-160429289D01*
X144786732Y-160407612D01*
X144825000Y-160400000D01*
X145025000Y-160400000D01*
X145063268Y-160407612D01*
G37*
G36*
X145713268Y-160407612D02*
G01*
X145745711Y-160429289D01*
X145767388Y-160461732D01*
X145775000Y-160500000D01*
X145775000Y-161775000D01*
X145767388Y-161813268D01*
X145745711Y-161845711D01*
X145713268Y-161867388D01*
X145675000Y-161875000D01*
X145475000Y-161875000D01*
X145436732Y-161867388D01*
X145404289Y-161845711D01*
X145382612Y-161813268D01*
X145375000Y-161775000D01*
X145375000Y-160500000D01*
X145382612Y-160461732D01*
X145404289Y-160429289D01*
X145436732Y-160407612D01*
X145475000Y-160400000D01*
X145675000Y-160400000D01*
X145713268Y-160407612D01*
G37*
G36*
X138563268Y-122132612D02*
G01*
X138595711Y-122154289D01*
X138617388Y-122186732D01*
X138625000Y-122225000D01*
X138625000Y-123500000D01*
X138617388Y-123538268D01*
X138595711Y-123570711D01*
X138563268Y-123592388D01*
X138525000Y-123600000D01*
X138325000Y-123600000D01*
X138286732Y-123592388D01*
X138254289Y-123570711D01*
X138232612Y-123538268D01*
X138225000Y-123500000D01*
X138225000Y-122225000D01*
X138232612Y-122186732D01*
X138254289Y-122154289D01*
X138286732Y-122132612D01*
X138325000Y-122125000D01*
X138525000Y-122125000D01*
X138563268Y-122132612D01*
G37*
G36*
X139213268Y-122132612D02*
G01*
X139245711Y-122154289D01*
X139267388Y-122186732D01*
X139275000Y-122225000D01*
X139275000Y-123500000D01*
X139267388Y-123538268D01*
X139245711Y-123570711D01*
X139213268Y-123592388D01*
X139175000Y-123600000D01*
X138975000Y-123600000D01*
X138936732Y-123592388D01*
X138904289Y-123570711D01*
X138882612Y-123538268D01*
X138875000Y-123500000D01*
X138875000Y-122225000D01*
X138882612Y-122186732D01*
X138904289Y-122154289D01*
X138936732Y-122132612D01*
X138975000Y-122125000D01*
X139175000Y-122125000D01*
X139213268Y-122132612D01*
G37*
G36*
X139863268Y-122132612D02*
G01*
X139895711Y-122154289D01*
X139917388Y-122186732D01*
X139925000Y-122225000D01*
X139925000Y-123500000D01*
X139917388Y-123538268D01*
X139895711Y-123570711D01*
X139863268Y-123592388D01*
X139825000Y-123600000D01*
X139625000Y-123600000D01*
X139586732Y-123592388D01*
X139554289Y-123570711D01*
X139532612Y-123538268D01*
X139525000Y-123500000D01*
X139525000Y-122225000D01*
X139532612Y-122186732D01*
X139554289Y-122154289D01*
X139586732Y-122132612D01*
X139625000Y-122125000D01*
X139825000Y-122125000D01*
X139863268Y-122132612D01*
G37*
G36*
X140513268Y-122132612D02*
G01*
X140545711Y-122154289D01*
X140567388Y-122186732D01*
X140575000Y-122225000D01*
X140575000Y-123500000D01*
X140567388Y-123538268D01*
X140545711Y-123570711D01*
X140513268Y-123592388D01*
X140475000Y-123600000D01*
X140275000Y-123600000D01*
X140236732Y-123592388D01*
X140204289Y-123570711D01*
X140182612Y-123538268D01*
X140175000Y-123500000D01*
X140175000Y-122225000D01*
X140182612Y-122186732D01*
X140204289Y-122154289D01*
X140236732Y-122132612D01*
X140275000Y-122125000D01*
X140475000Y-122125000D01*
X140513268Y-122132612D01*
G37*
G36*
X141163268Y-122132612D02*
G01*
X141195711Y-122154289D01*
X141217388Y-122186732D01*
X141225000Y-122225000D01*
X141225000Y-123500000D01*
X141217388Y-123538268D01*
X141195711Y-123570711D01*
X141163268Y-123592388D01*
X141125000Y-123600000D01*
X140925000Y-123600000D01*
X140886732Y-123592388D01*
X140854289Y-123570711D01*
X140832612Y-123538268D01*
X140825000Y-123500000D01*
X140825000Y-122225000D01*
X140832612Y-122186732D01*
X140854289Y-122154289D01*
X140886732Y-122132612D01*
X140925000Y-122125000D01*
X141125000Y-122125000D01*
X141163268Y-122132612D01*
G37*
G36*
X141813268Y-122132612D02*
G01*
X141845711Y-122154289D01*
X141867388Y-122186732D01*
X141875000Y-122225000D01*
X141875000Y-123500000D01*
X141867388Y-123538268D01*
X141845711Y-123570711D01*
X141813268Y-123592388D01*
X141775000Y-123600000D01*
X141575000Y-123600000D01*
X141536732Y-123592388D01*
X141504289Y-123570711D01*
X141482612Y-123538268D01*
X141475000Y-123500000D01*
X141475000Y-122225000D01*
X141482612Y-122186732D01*
X141504289Y-122154289D01*
X141536732Y-122132612D01*
X141575000Y-122125000D01*
X141775000Y-122125000D01*
X141813268Y-122132612D01*
G37*
G36*
X142463268Y-122132612D02*
G01*
X142495711Y-122154289D01*
X142517388Y-122186732D01*
X142525000Y-122225000D01*
X142525000Y-123500000D01*
X142517388Y-123538268D01*
X142495711Y-123570711D01*
X142463268Y-123592388D01*
X142425000Y-123600000D01*
X142225000Y-123600000D01*
X142186732Y-123592388D01*
X142154289Y-123570711D01*
X142132612Y-123538268D01*
X142125000Y-123500000D01*
X142125000Y-122225000D01*
X142132612Y-122186732D01*
X142154289Y-122154289D01*
X142186732Y-122132612D01*
X142225000Y-122125000D01*
X142425000Y-122125000D01*
X142463268Y-122132612D01*
G37*
G36*
X143113268Y-122132612D02*
G01*
X143145711Y-122154289D01*
X143167388Y-122186732D01*
X143175000Y-122225000D01*
X143175000Y-123500000D01*
X143167388Y-123538268D01*
X143145711Y-123570711D01*
X143113268Y-123592388D01*
X143075000Y-123600000D01*
X142875000Y-123600000D01*
X142836732Y-123592388D01*
X142804289Y-123570711D01*
X142782612Y-123538268D01*
X142775000Y-123500000D01*
X142775000Y-122225000D01*
X142782612Y-122186732D01*
X142804289Y-122154289D01*
X142836732Y-122132612D01*
X142875000Y-122125000D01*
X143075000Y-122125000D01*
X143113268Y-122132612D01*
G37*
G36*
X143763268Y-122132612D02*
G01*
X143795711Y-122154289D01*
X143817388Y-122186732D01*
X143825000Y-122225000D01*
X143825000Y-123500000D01*
X143817388Y-123538268D01*
X143795711Y-123570711D01*
X143763268Y-123592388D01*
X143725000Y-123600000D01*
X143525000Y-123600000D01*
X143486732Y-123592388D01*
X143454289Y-123570711D01*
X143432612Y-123538268D01*
X143425000Y-123500000D01*
X143425000Y-122225000D01*
X143432612Y-122186732D01*
X143454289Y-122154289D01*
X143486732Y-122132612D01*
X143525000Y-122125000D01*
X143725000Y-122125000D01*
X143763268Y-122132612D01*
G37*
G36*
X144413268Y-122132612D02*
G01*
X144445711Y-122154289D01*
X144467388Y-122186732D01*
X144475000Y-122225000D01*
X144475000Y-123500000D01*
X144467388Y-123538268D01*
X144445711Y-123570711D01*
X144413268Y-123592388D01*
X144375000Y-123600000D01*
X144175000Y-123600000D01*
X144136732Y-123592388D01*
X144104289Y-123570711D01*
X144082612Y-123538268D01*
X144075000Y-123500000D01*
X144075000Y-122225000D01*
X144082612Y-122186732D01*
X144104289Y-122154289D01*
X144136732Y-122132612D01*
X144175000Y-122125000D01*
X144375000Y-122125000D01*
X144413268Y-122132612D01*
G37*
G36*
X145063268Y-122132612D02*
G01*
X145095711Y-122154289D01*
X145117388Y-122186732D01*
X145125000Y-122225000D01*
X145125000Y-123500000D01*
X145117388Y-123538268D01*
X145095711Y-123570711D01*
X145063268Y-123592388D01*
X145025000Y-123600000D01*
X144825000Y-123600000D01*
X144786732Y-123592388D01*
X144754289Y-123570711D01*
X144732612Y-123538268D01*
X144725000Y-123500000D01*
X144725000Y-122225000D01*
X144732612Y-122186732D01*
X144754289Y-122154289D01*
X144786732Y-122132612D01*
X144825000Y-122125000D01*
X145025000Y-122125000D01*
X145063268Y-122132612D01*
G37*
G36*
X145713268Y-122132612D02*
G01*
X145745711Y-122154289D01*
X145767388Y-122186732D01*
X145775000Y-122225000D01*
X145775000Y-123500000D01*
X145767388Y-123538268D01*
X145745711Y-123570711D01*
X145713268Y-123592388D01*
X145675000Y-123600000D01*
X145475000Y-123600000D01*
X145436732Y-123592388D01*
X145404289Y-123570711D01*
X145382612Y-123538268D01*
X145375000Y-123500000D01*
X145375000Y-122225000D01*
X145382612Y-122186732D01*
X145404289Y-122154289D01*
X145436732Y-122132612D01*
X145475000Y-122125000D01*
X145675000Y-122125000D01*
X145713268Y-122132612D01*
G37*
G36*
X137473576Y-122980657D02*
G01*
X137518995Y-123011005D01*
X137549343Y-123056424D01*
X137560000Y-123110000D01*
X137560000Y-123390000D01*
X137549343Y-123443576D01*
X137518995Y-123488995D01*
X137473576Y-123519343D01*
X137420000Y-123530000D01*
X137080000Y-123530000D01*
X137026424Y-123519343D01*
X136981005Y-123488995D01*
X136950657Y-123443576D01*
X136940000Y-123390000D01*
X136940000Y-123110000D01*
X136950657Y-123056424D01*
X136981005Y-123011005D01*
X137026424Y-122980657D01*
X137080000Y-122970000D01*
X137420000Y-122970000D01*
X137473576Y-122980657D01*
G37*
G36*
X137473576Y-122020657D02*
G01*
X137518995Y-122051005D01*
X137549343Y-122096424D01*
X137560000Y-122150000D01*
X137560000Y-122430000D01*
X137549343Y-122483576D01*
X137518995Y-122528995D01*
X137473576Y-122559343D01*
X137420000Y-122570000D01*
X137080000Y-122570000D01*
X137026424Y-122559343D01*
X136981005Y-122528995D01*
X136950657Y-122483576D01*
X136940000Y-122430000D01*
X136940000Y-122150000D01*
X136950657Y-122096424D01*
X136981005Y-122051005D01*
X137026424Y-122020657D01*
X137080000Y-122010000D01*
X137420000Y-122010000D01*
X137473576Y-122020657D01*
G37*
G36*
X146986662Y-120240276D02*
G01*
X147030459Y-120269541D01*
X147059724Y-120313338D01*
X147070000Y-120365000D01*
X147070000Y-120635000D01*
X147059724Y-120686662D01*
X147030459Y-120730459D01*
X146986662Y-120759724D01*
X146935000Y-120770000D01*
X146565000Y-120770000D01*
X146513338Y-120759724D01*
X146469541Y-120730459D01*
X146440276Y-120686662D01*
X146430000Y-120635000D01*
X146430000Y-120365000D01*
X146440276Y-120313338D01*
X146469541Y-120269541D01*
X146513338Y-120240276D01*
X146565000Y-120230000D01*
X146935000Y-120230000D01*
X146986662Y-120240276D01*
G37*
G36*
X146986662Y-119220276D02*
G01*
X147030459Y-119249541D01*
X147059724Y-119293338D01*
X147070000Y-119345000D01*
X147070000Y-119615000D01*
X147059724Y-119666662D01*
X147030459Y-119710459D01*
X146986662Y-119739724D01*
X146935000Y-119750000D01*
X146565000Y-119750000D01*
X146513338Y-119739724D01*
X146469541Y-119710459D01*
X146440276Y-119666662D01*
X146430000Y-119615000D01*
X146430000Y-119345000D01*
X146440276Y-119293338D01*
X146469541Y-119249541D01*
X146513338Y-119220276D01*
X146565000Y-119210000D01*
X146935000Y-119210000D01*
X146986662Y-119220276D01*
G37*
G36*
X138563268Y-116407612D02*
G01*
X138595711Y-116429289D01*
X138617388Y-116461732D01*
X138625000Y-116500000D01*
X138625000Y-117775000D01*
X138617388Y-117813268D01*
X138595711Y-117845711D01*
X138563268Y-117867388D01*
X138525000Y-117875000D01*
X138325000Y-117875000D01*
X138286732Y-117867388D01*
X138254289Y-117845711D01*
X138232612Y-117813268D01*
X138225000Y-117775000D01*
X138225000Y-116500000D01*
X138232612Y-116461732D01*
X138254289Y-116429289D01*
X138286732Y-116407612D01*
X138325000Y-116400000D01*
X138525000Y-116400000D01*
X138563268Y-116407612D01*
G37*
G36*
X139213268Y-116407612D02*
G01*
X139245711Y-116429289D01*
X139267388Y-116461732D01*
X139275000Y-116500000D01*
X139275000Y-117775000D01*
X139267388Y-117813268D01*
X139245711Y-117845711D01*
X139213268Y-117867388D01*
X139175000Y-117875000D01*
X138975000Y-117875000D01*
X138936732Y-117867388D01*
X138904289Y-117845711D01*
X138882612Y-117813268D01*
X138875000Y-117775000D01*
X138875000Y-116500000D01*
X138882612Y-116461732D01*
X138904289Y-116429289D01*
X138936732Y-116407612D01*
X138975000Y-116400000D01*
X139175000Y-116400000D01*
X139213268Y-116407612D01*
G37*
G36*
X139863268Y-116407612D02*
G01*
X139895711Y-116429289D01*
X139917388Y-116461732D01*
X139925000Y-116500000D01*
X139925000Y-117775000D01*
X139917388Y-117813268D01*
X139895711Y-117845711D01*
X139863268Y-117867388D01*
X139825000Y-117875000D01*
X139625000Y-117875000D01*
X139586732Y-117867388D01*
X139554289Y-117845711D01*
X139532612Y-117813268D01*
X139525000Y-117775000D01*
X139525000Y-116500000D01*
X139532612Y-116461732D01*
X139554289Y-116429289D01*
X139586732Y-116407612D01*
X139625000Y-116400000D01*
X139825000Y-116400000D01*
X139863268Y-116407612D01*
G37*
G36*
X140513268Y-116407612D02*
G01*
X140545711Y-116429289D01*
X140567388Y-116461732D01*
X140575000Y-116500000D01*
X140575000Y-117775000D01*
X140567388Y-117813268D01*
X140545711Y-117845711D01*
X140513268Y-117867388D01*
X140475000Y-117875000D01*
X140275000Y-117875000D01*
X140236732Y-117867388D01*
X140204289Y-117845711D01*
X140182612Y-117813268D01*
X140175000Y-117775000D01*
X140175000Y-116500000D01*
X140182612Y-116461732D01*
X140204289Y-116429289D01*
X140236732Y-116407612D01*
X140275000Y-116400000D01*
X140475000Y-116400000D01*
X140513268Y-116407612D01*
G37*
G36*
X141163268Y-116407612D02*
G01*
X141195711Y-116429289D01*
X141217388Y-116461732D01*
X141225000Y-116500000D01*
X141225000Y-117775000D01*
X141217388Y-117813268D01*
X141195711Y-117845711D01*
X141163268Y-117867388D01*
X141125000Y-117875000D01*
X140925000Y-117875000D01*
X140886732Y-117867388D01*
X140854289Y-117845711D01*
X140832612Y-117813268D01*
X140825000Y-117775000D01*
X140825000Y-116500000D01*
X140832612Y-116461732D01*
X140854289Y-116429289D01*
X140886732Y-116407612D01*
X140925000Y-116400000D01*
X141125000Y-116400000D01*
X141163268Y-116407612D01*
G37*
G36*
X141813268Y-116407612D02*
G01*
X141845711Y-116429289D01*
X141867388Y-116461732D01*
X141875000Y-116500000D01*
X141875000Y-117775000D01*
X141867388Y-117813268D01*
X141845711Y-117845711D01*
X141813268Y-117867388D01*
X141775000Y-117875000D01*
X141575000Y-117875000D01*
X141536732Y-117867388D01*
X141504289Y-117845711D01*
X141482612Y-117813268D01*
X141475000Y-117775000D01*
X141475000Y-116500000D01*
X141482612Y-116461732D01*
X141504289Y-116429289D01*
X141536732Y-116407612D01*
X141575000Y-116400000D01*
X141775000Y-116400000D01*
X141813268Y-116407612D01*
G37*
G36*
X142463268Y-116407612D02*
G01*
X142495711Y-116429289D01*
X142517388Y-116461732D01*
X142525000Y-116500000D01*
X142525000Y-117775000D01*
X142517388Y-117813268D01*
X142495711Y-117845711D01*
X142463268Y-117867388D01*
X142425000Y-117875000D01*
X142225000Y-117875000D01*
X142186732Y-117867388D01*
X142154289Y-117845711D01*
X142132612Y-117813268D01*
X142125000Y-117775000D01*
X142125000Y-116500000D01*
X142132612Y-116461732D01*
X142154289Y-116429289D01*
X142186732Y-116407612D01*
X142225000Y-116400000D01*
X142425000Y-116400000D01*
X142463268Y-116407612D01*
G37*
G36*
X143113268Y-116407612D02*
G01*
X143145711Y-116429289D01*
X143167388Y-116461732D01*
X143175000Y-116500000D01*
X143175000Y-117775000D01*
X143167388Y-117813268D01*
X143145711Y-117845711D01*
X143113268Y-117867388D01*
X143075000Y-117875000D01*
X142875000Y-117875000D01*
X142836732Y-117867388D01*
X142804289Y-117845711D01*
X142782612Y-117813268D01*
X142775000Y-117775000D01*
X142775000Y-116500000D01*
X142782612Y-116461732D01*
X142804289Y-116429289D01*
X142836732Y-116407612D01*
X142875000Y-116400000D01*
X143075000Y-116400000D01*
X143113268Y-116407612D01*
G37*
G36*
X143763268Y-116407612D02*
G01*
X143795711Y-116429289D01*
X143817388Y-116461732D01*
X143825000Y-116500000D01*
X143825000Y-117775000D01*
X143817388Y-117813268D01*
X143795711Y-117845711D01*
X143763268Y-117867388D01*
X143725000Y-117875000D01*
X143525000Y-117875000D01*
X143486732Y-117867388D01*
X143454289Y-117845711D01*
X143432612Y-117813268D01*
X143425000Y-117775000D01*
X143425000Y-116500000D01*
X143432612Y-116461732D01*
X143454289Y-116429289D01*
X143486732Y-116407612D01*
X143525000Y-116400000D01*
X143725000Y-116400000D01*
X143763268Y-116407612D01*
G37*
G36*
X144413268Y-116407612D02*
G01*
X144445711Y-116429289D01*
X144467388Y-116461732D01*
X144475000Y-116500000D01*
X144475000Y-117775000D01*
X144467388Y-117813268D01*
X144445711Y-117845711D01*
X144413268Y-117867388D01*
X144375000Y-117875000D01*
X144175000Y-117875000D01*
X144136732Y-117867388D01*
X144104289Y-117845711D01*
X144082612Y-117813268D01*
X144075000Y-117775000D01*
X144075000Y-116500000D01*
X144082612Y-116461732D01*
X144104289Y-116429289D01*
X144136732Y-116407612D01*
X144175000Y-116400000D01*
X144375000Y-116400000D01*
X144413268Y-116407612D01*
G37*
G36*
X145063268Y-116407612D02*
G01*
X145095711Y-116429289D01*
X145117388Y-116461732D01*
X145125000Y-116500000D01*
X145125000Y-117775000D01*
X145117388Y-117813268D01*
X145095711Y-117845711D01*
X145063268Y-117867388D01*
X145025000Y-117875000D01*
X144825000Y-117875000D01*
X144786732Y-117867388D01*
X144754289Y-117845711D01*
X144732612Y-117813268D01*
X144725000Y-117775000D01*
X144725000Y-116500000D01*
X144732612Y-116461732D01*
X144754289Y-116429289D01*
X144786732Y-116407612D01*
X144825000Y-116400000D01*
X145025000Y-116400000D01*
X145063268Y-116407612D01*
G37*
G36*
X145713268Y-116407612D02*
G01*
X145745711Y-116429289D01*
X145767388Y-116461732D01*
X145775000Y-116500000D01*
X145775000Y-117775000D01*
X145767388Y-117813268D01*
X145745711Y-117845711D01*
X145713268Y-117867388D01*
X145675000Y-117875000D01*
X145475000Y-117875000D01*
X145436732Y-117867388D01*
X145404289Y-117845711D01*
X145382612Y-117813268D01*
X145375000Y-117775000D01*
X145375000Y-116500000D01*
X145382612Y-116461732D01*
X145404289Y-116429289D01*
X145436732Y-116407612D01*
X145475000Y-116400000D01*
X145675000Y-116400000D01*
X145713268Y-116407612D01*
G37*
G36*
X138563268Y-78132612D02*
G01*
X138595711Y-78154289D01*
X138617388Y-78186732D01*
X138625000Y-78225000D01*
X138625000Y-79500000D01*
X138617388Y-79538268D01*
X138595711Y-79570711D01*
X138563268Y-79592388D01*
X138525000Y-79600000D01*
X138325000Y-79600000D01*
X138286732Y-79592388D01*
X138254289Y-79570711D01*
X138232612Y-79538268D01*
X138225000Y-79500000D01*
X138225000Y-78225000D01*
X138232612Y-78186732D01*
X138254289Y-78154289D01*
X138286732Y-78132612D01*
X138325000Y-78125000D01*
X138525000Y-78125000D01*
X138563268Y-78132612D01*
G37*
G36*
X139213268Y-78132612D02*
G01*
X139245711Y-78154289D01*
X139267388Y-78186732D01*
X139275000Y-78225000D01*
X139275000Y-79500000D01*
X139267388Y-79538268D01*
X139245711Y-79570711D01*
X139213268Y-79592388D01*
X139175000Y-79600000D01*
X138975000Y-79600000D01*
X138936732Y-79592388D01*
X138904289Y-79570711D01*
X138882612Y-79538268D01*
X138875000Y-79500000D01*
X138875000Y-78225000D01*
X138882612Y-78186732D01*
X138904289Y-78154289D01*
X138936732Y-78132612D01*
X138975000Y-78125000D01*
X139175000Y-78125000D01*
X139213268Y-78132612D01*
G37*
G36*
X139863268Y-78132612D02*
G01*
X139895711Y-78154289D01*
X139917388Y-78186732D01*
X139925000Y-78225000D01*
X139925000Y-79500000D01*
X139917388Y-79538268D01*
X139895711Y-79570711D01*
X139863268Y-79592388D01*
X139825000Y-79600000D01*
X139625000Y-79600000D01*
X139586732Y-79592388D01*
X139554289Y-79570711D01*
X139532612Y-79538268D01*
X139525000Y-79500000D01*
X139525000Y-78225000D01*
X139532612Y-78186732D01*
X139554289Y-78154289D01*
X139586732Y-78132612D01*
X139625000Y-78125000D01*
X139825000Y-78125000D01*
X139863268Y-78132612D01*
G37*
G36*
X140513268Y-78132612D02*
G01*
X140545711Y-78154289D01*
X140567388Y-78186732D01*
X140575000Y-78225000D01*
X140575000Y-79500000D01*
X140567388Y-79538268D01*
X140545711Y-79570711D01*
X140513268Y-79592388D01*
X140475000Y-79600000D01*
X140275000Y-79600000D01*
X140236732Y-79592388D01*
X140204289Y-79570711D01*
X140182612Y-79538268D01*
X140175000Y-79500000D01*
X140175000Y-78225000D01*
X140182612Y-78186732D01*
X140204289Y-78154289D01*
X140236732Y-78132612D01*
X140275000Y-78125000D01*
X140475000Y-78125000D01*
X140513268Y-78132612D01*
G37*
G36*
X141163268Y-78132612D02*
G01*
X141195711Y-78154289D01*
X141217388Y-78186732D01*
X141225000Y-78225000D01*
X141225000Y-79500000D01*
X141217388Y-79538268D01*
X141195711Y-79570711D01*
X141163268Y-79592388D01*
X141125000Y-79600000D01*
X140925000Y-79600000D01*
X140886732Y-79592388D01*
X140854289Y-79570711D01*
X140832612Y-79538268D01*
X140825000Y-79500000D01*
X140825000Y-78225000D01*
X140832612Y-78186732D01*
X140854289Y-78154289D01*
X140886732Y-78132612D01*
X140925000Y-78125000D01*
X141125000Y-78125000D01*
X141163268Y-78132612D01*
G37*
G36*
X141813268Y-78132612D02*
G01*
X141845711Y-78154289D01*
X141867388Y-78186732D01*
X141875000Y-78225000D01*
X141875000Y-79500000D01*
X141867388Y-79538268D01*
X141845711Y-79570711D01*
X141813268Y-79592388D01*
X141775000Y-79600000D01*
X141575000Y-79600000D01*
X141536732Y-79592388D01*
X141504289Y-79570711D01*
X141482612Y-79538268D01*
X141475000Y-79500000D01*
X141475000Y-78225000D01*
X141482612Y-78186732D01*
X141504289Y-78154289D01*
X141536732Y-78132612D01*
X141575000Y-78125000D01*
X141775000Y-78125000D01*
X141813268Y-78132612D01*
G37*
G36*
X142463268Y-78132612D02*
G01*
X142495711Y-78154289D01*
X142517388Y-78186732D01*
X142525000Y-78225000D01*
X142525000Y-79500000D01*
X142517388Y-79538268D01*
X142495711Y-79570711D01*
X142463268Y-79592388D01*
X142425000Y-79600000D01*
X142225000Y-79600000D01*
X142186732Y-79592388D01*
X142154289Y-79570711D01*
X142132612Y-79538268D01*
X142125000Y-79500000D01*
X142125000Y-78225000D01*
X142132612Y-78186732D01*
X142154289Y-78154289D01*
X142186732Y-78132612D01*
X142225000Y-78125000D01*
X142425000Y-78125000D01*
X142463268Y-78132612D01*
G37*
G36*
X143113268Y-78132612D02*
G01*
X143145711Y-78154289D01*
X143167388Y-78186732D01*
X143175000Y-78225000D01*
X143175000Y-79500000D01*
X143167388Y-79538268D01*
X143145711Y-79570711D01*
X143113268Y-79592388D01*
X143075000Y-79600000D01*
X142875000Y-79600000D01*
X142836732Y-79592388D01*
X142804289Y-79570711D01*
X142782612Y-79538268D01*
X142775000Y-79500000D01*
X142775000Y-78225000D01*
X142782612Y-78186732D01*
X142804289Y-78154289D01*
X142836732Y-78132612D01*
X142875000Y-78125000D01*
X143075000Y-78125000D01*
X143113268Y-78132612D01*
G37*
G36*
X143763268Y-78132612D02*
G01*
X143795711Y-78154289D01*
X143817388Y-78186732D01*
X143825000Y-78225000D01*
X143825000Y-79500000D01*
X143817388Y-79538268D01*
X143795711Y-79570711D01*
X143763268Y-79592388D01*
X143725000Y-79600000D01*
X143525000Y-79600000D01*
X143486732Y-79592388D01*
X143454289Y-79570711D01*
X143432612Y-79538268D01*
X143425000Y-79500000D01*
X143425000Y-78225000D01*
X143432612Y-78186732D01*
X143454289Y-78154289D01*
X143486732Y-78132612D01*
X143525000Y-78125000D01*
X143725000Y-78125000D01*
X143763268Y-78132612D01*
G37*
G36*
X144413268Y-78132612D02*
G01*
X144445711Y-78154289D01*
X144467388Y-78186732D01*
X144475000Y-78225000D01*
X144475000Y-79500000D01*
X144467388Y-79538268D01*
X144445711Y-79570711D01*
X144413268Y-79592388D01*
X144375000Y-79600000D01*
X144175000Y-79600000D01*
X144136732Y-79592388D01*
X144104289Y-79570711D01*
X144082612Y-79538268D01*
X144075000Y-79500000D01*
X144075000Y-78225000D01*
X144082612Y-78186732D01*
X144104289Y-78154289D01*
X144136732Y-78132612D01*
X144175000Y-78125000D01*
X144375000Y-78125000D01*
X144413268Y-78132612D01*
G37*
G36*
X145063268Y-78132612D02*
G01*
X145095711Y-78154289D01*
X145117388Y-78186732D01*
X145125000Y-78225000D01*
X145125000Y-79500000D01*
X145117388Y-79538268D01*
X145095711Y-79570711D01*
X145063268Y-79592388D01*
X145025000Y-79600000D01*
X144825000Y-79600000D01*
X144786732Y-79592388D01*
X144754289Y-79570711D01*
X144732612Y-79538268D01*
X144725000Y-79500000D01*
X144725000Y-78225000D01*
X144732612Y-78186732D01*
X144754289Y-78154289D01*
X144786732Y-78132612D01*
X144825000Y-78125000D01*
X145025000Y-78125000D01*
X145063268Y-78132612D01*
G37*
G36*
X145713268Y-78132612D02*
G01*
X145745711Y-78154289D01*
X145767388Y-78186732D01*
X145775000Y-78225000D01*
X145775000Y-79500000D01*
X145767388Y-79538268D01*
X145745711Y-79570711D01*
X145713268Y-79592388D01*
X145675000Y-79600000D01*
X145475000Y-79600000D01*
X145436732Y-79592388D01*
X145404289Y-79570711D01*
X145382612Y-79538268D01*
X145375000Y-79500000D01*
X145375000Y-78225000D01*
X145382612Y-78186732D01*
X145404289Y-78154289D01*
X145436732Y-78132612D01*
X145475000Y-78125000D01*
X145675000Y-78125000D01*
X145713268Y-78132612D01*
G37*
G36*
X137473576Y-78940657D02*
G01*
X137518995Y-78971005D01*
X137549343Y-79016424D01*
X137560000Y-79070000D01*
X137560000Y-79350000D01*
X137549343Y-79403576D01*
X137518995Y-79448995D01*
X137473576Y-79479343D01*
X137420000Y-79490000D01*
X137080000Y-79490000D01*
X137026424Y-79479343D01*
X136981005Y-79448995D01*
X136950657Y-79403576D01*
X136940000Y-79350000D01*
X136940000Y-79070000D01*
X136950657Y-79016424D01*
X136981005Y-78971005D01*
X137026424Y-78940657D01*
X137080000Y-78930000D01*
X137420000Y-78930000D01*
X137473576Y-78940657D01*
G37*
G36*
X137473576Y-77980657D02*
G01*
X137518995Y-78011005D01*
X137549343Y-78056424D01*
X137560000Y-78110000D01*
X137560000Y-78390000D01*
X137549343Y-78443576D01*
X137518995Y-78488995D01*
X137473576Y-78519343D01*
X137420000Y-78530000D01*
X137080000Y-78530000D01*
X137026424Y-78519343D01*
X136981005Y-78488995D01*
X136950657Y-78443576D01*
X136940000Y-78390000D01*
X136940000Y-78110000D01*
X136950657Y-78056424D01*
X136981005Y-78011005D01*
X137026424Y-77980657D01*
X137080000Y-77970000D01*
X137420000Y-77970000D01*
X137473576Y-77980657D01*
G37*
G36*
X146986662Y-76240276D02*
G01*
X147030459Y-76269541D01*
X147059724Y-76313338D01*
X147070000Y-76365000D01*
X147070000Y-76635000D01*
X147059724Y-76686662D01*
X147030459Y-76730459D01*
X146986662Y-76759724D01*
X146935000Y-76770000D01*
X146565000Y-76770000D01*
X146513338Y-76759724D01*
X146469541Y-76730459D01*
X146440276Y-76686662D01*
X146430000Y-76635000D01*
X146430000Y-76365000D01*
X146440276Y-76313338D01*
X146469541Y-76269541D01*
X146513338Y-76240276D01*
X146565000Y-76230000D01*
X146935000Y-76230000D01*
X146986662Y-76240276D01*
G37*
G36*
X108922810Y-74300667D02*
G01*
X109093019Y-74371170D01*
X109246203Y-74473525D01*
X109376475Y-74603797D01*
X109478830Y-74756981D01*
X109549333Y-74927190D01*
X109585275Y-75107883D01*
X109585275Y-75292117D01*
X109549333Y-75472810D01*
X109478830Y-75643019D01*
X109376475Y-75796203D01*
X109246203Y-75926475D01*
X109093019Y-76028830D01*
X108922810Y-76099333D01*
X108742117Y-76135275D01*
X108557883Y-76135275D01*
X108377190Y-76099333D01*
X108206981Y-76028830D01*
X108053797Y-75926475D01*
X107923525Y-75796203D01*
X107821170Y-75643019D01*
X107750667Y-75472810D01*
X107714725Y-75292117D01*
X107714725Y-75107883D01*
X107750667Y-74927190D01*
X107821170Y-74756981D01*
X107923525Y-74603797D01*
X108053797Y-74473525D01*
X108206981Y-74371170D01*
X108377190Y-74300667D01*
X108557883Y-74264725D01*
X108742117Y-74264725D01*
X108922810Y-74300667D01*
G37*
G36*
X111462810Y-74300667D02*
G01*
X111633019Y-74371170D01*
X111786203Y-74473525D01*
X111916475Y-74603797D01*
X112018830Y-74756981D01*
X112089333Y-74927190D01*
X112125275Y-75107883D01*
X112125275Y-75292117D01*
X112089333Y-75472810D01*
X112018830Y-75643019D01*
X111916475Y-75796203D01*
X111786203Y-75926475D01*
X111633019Y-76028830D01*
X111462810Y-76099333D01*
X111282117Y-76135275D01*
X111097883Y-76135275D01*
X110917190Y-76099333D01*
X110746981Y-76028830D01*
X110593797Y-75926475D01*
X110463525Y-75796203D01*
X110361170Y-75643019D01*
X110290667Y-75472810D01*
X110254725Y-75292117D01*
X110254725Y-75107883D01*
X110290667Y-74927190D01*
X110361170Y-74756981D01*
X110463525Y-74603797D01*
X110593797Y-74473525D01*
X110746981Y-74371170D01*
X110917190Y-74300667D01*
X111097883Y-74264725D01*
X111282117Y-74264725D01*
X111462810Y-74300667D01*
G37*
G36*
X114002810Y-74300667D02*
G01*
X114173019Y-74371170D01*
X114326203Y-74473525D01*
X114456475Y-74603797D01*
X114558830Y-74756981D01*
X114629333Y-74927190D01*
X114665275Y-75107883D01*
X114665275Y-75292117D01*
X114629333Y-75472810D01*
X114558830Y-75643019D01*
X114456475Y-75796203D01*
X114326203Y-75926475D01*
X114173019Y-76028830D01*
X114002810Y-76099333D01*
X113822117Y-76135275D01*
X113637883Y-76135275D01*
X113457190Y-76099333D01*
X113286981Y-76028830D01*
X113133797Y-75926475D01*
X113003525Y-75796203D01*
X112901170Y-75643019D01*
X112830667Y-75472810D01*
X112794725Y-75292117D01*
X112794725Y-75107883D01*
X112830667Y-74927190D01*
X112901170Y-74756981D01*
X113003525Y-74603797D01*
X113133797Y-74473525D01*
X113286981Y-74371170D01*
X113457190Y-74300667D01*
X113637883Y-74264725D01*
X113822117Y-74264725D01*
X114002810Y-74300667D01*
G37*
G36*
X116542810Y-74300667D02*
G01*
X116713019Y-74371170D01*
X116866203Y-74473525D01*
X116996475Y-74603797D01*
X117098830Y-74756981D01*
X117169333Y-74927190D01*
X117205275Y-75107883D01*
X117205275Y-75292117D01*
X117169333Y-75472810D01*
X117098830Y-75643019D01*
X116996475Y-75796203D01*
X116866203Y-75926475D01*
X116713019Y-76028830D01*
X116542810Y-76099333D01*
X116362117Y-76135275D01*
X116177883Y-76135275D01*
X115997190Y-76099333D01*
X115826981Y-76028830D01*
X115673797Y-75926475D01*
X115543525Y-75796203D01*
X115441170Y-75643019D01*
X115370667Y-75472810D01*
X115334725Y-75292117D01*
X115334725Y-75107883D01*
X115370667Y-74927190D01*
X115441170Y-74756981D01*
X115543525Y-74603797D01*
X115673797Y-74473525D01*
X115826981Y-74371170D01*
X115997190Y-74300667D01*
X116177883Y-74264725D01*
X116362117Y-74264725D01*
X116542810Y-74300667D01*
G37*
G36*
X119082810Y-74300667D02*
G01*
X119253019Y-74371170D01*
X119406203Y-74473525D01*
X119536475Y-74603797D01*
X119638830Y-74756981D01*
X119709333Y-74927190D01*
X119745275Y-75107883D01*
X119745275Y-75292117D01*
X119709333Y-75472810D01*
X119638830Y-75643019D01*
X119536475Y-75796203D01*
X119406203Y-75926475D01*
X119253019Y-76028830D01*
X119082810Y-76099333D01*
X118902117Y-76135275D01*
X118717883Y-76135275D01*
X118537190Y-76099333D01*
X118366981Y-76028830D01*
X118213797Y-75926475D01*
X118083525Y-75796203D01*
X117981170Y-75643019D01*
X117910667Y-75472810D01*
X117874725Y-75292117D01*
X117874725Y-75107883D01*
X117910667Y-74927190D01*
X117981170Y-74756981D01*
X118083525Y-74603797D01*
X118213797Y-74473525D01*
X118366981Y-74371170D01*
X118537190Y-74300667D01*
X118717883Y-74264725D01*
X118902117Y-74264725D01*
X119082810Y-74300667D01*
G37*
G36*
X121622810Y-74300667D02*
G01*
X121793019Y-74371170D01*
X121946203Y-74473525D01*
X122076475Y-74603797D01*
X122178830Y-74756981D01*
X122249333Y-74927190D01*
X122285275Y-75107883D01*
X122285275Y-75292117D01*
X122249333Y-75472810D01*
X122178830Y-75643019D01*
X122076475Y-75796203D01*
X121946203Y-75926475D01*
X121793019Y-76028830D01*
X121622810Y-76099333D01*
X121442117Y-76135275D01*
X121257883Y-76135275D01*
X121077190Y-76099333D01*
X120906981Y-76028830D01*
X120753797Y-75926475D01*
X120623525Y-75796203D01*
X120521170Y-75643019D01*
X120450667Y-75472810D01*
X120414725Y-75292117D01*
X120414725Y-75107883D01*
X120450667Y-74927190D01*
X120521170Y-74756981D01*
X120623525Y-74603797D01*
X120753797Y-74473525D01*
X120906981Y-74371170D01*
X121077190Y-74300667D01*
X121257883Y-74264725D01*
X121442117Y-74264725D01*
X121622810Y-74300667D01*
G37*
G36*
X146986662Y-75220276D02*
G01*
X147030459Y-75249541D01*
X147059724Y-75293338D01*
X147070000Y-75345000D01*
X147070000Y-75615000D01*
X147059724Y-75666662D01*
X147030459Y-75710459D01*
X146986662Y-75739724D01*
X146935000Y-75750000D01*
X146565000Y-75750000D01*
X146513338Y-75739724D01*
X146469541Y-75710459D01*
X146440276Y-75666662D01*
X146430000Y-75615000D01*
X146430000Y-75345000D01*
X146440276Y-75293338D01*
X146469541Y-75249541D01*
X146513338Y-75220276D01*
X146565000Y-75210000D01*
X146935000Y-75210000D01*
X146986662Y-75220276D01*
G37*
G36*
X138563268Y-72407612D02*
G01*
X138595711Y-72429289D01*
X138617388Y-72461732D01*
X138625000Y-72500000D01*
X138625000Y-73775000D01*
X138617388Y-73813268D01*
X138595711Y-73845711D01*
X138563268Y-73867388D01*
X138525000Y-73875000D01*
X138325000Y-73875000D01*
X138286732Y-73867388D01*
X138254289Y-73845711D01*
X138232612Y-73813268D01*
X138225000Y-73775000D01*
X138225000Y-72500000D01*
X138232612Y-72461732D01*
X138254289Y-72429289D01*
X138286732Y-72407612D01*
X138325000Y-72400000D01*
X138525000Y-72400000D01*
X138563268Y-72407612D01*
G37*
G36*
X139213268Y-72407612D02*
G01*
X139245711Y-72429289D01*
X139267388Y-72461732D01*
X139275000Y-72500000D01*
X139275000Y-73775000D01*
X139267388Y-73813268D01*
X139245711Y-73845711D01*
X139213268Y-73867388D01*
X139175000Y-73875000D01*
X138975000Y-73875000D01*
X138936732Y-73867388D01*
X138904289Y-73845711D01*
X138882612Y-73813268D01*
X138875000Y-73775000D01*
X138875000Y-72500000D01*
X138882612Y-72461732D01*
X138904289Y-72429289D01*
X138936732Y-72407612D01*
X138975000Y-72400000D01*
X139175000Y-72400000D01*
X139213268Y-72407612D01*
G37*
G36*
X139863268Y-72407612D02*
G01*
X139895711Y-72429289D01*
X139917388Y-72461732D01*
X139925000Y-72500000D01*
X139925000Y-73775000D01*
X139917388Y-73813268D01*
X139895711Y-73845711D01*
X139863268Y-73867388D01*
X139825000Y-73875000D01*
X139625000Y-73875000D01*
X139586732Y-73867388D01*
X139554289Y-73845711D01*
X139532612Y-73813268D01*
X139525000Y-73775000D01*
X139525000Y-72500000D01*
X139532612Y-72461732D01*
X139554289Y-72429289D01*
X139586732Y-72407612D01*
X139625000Y-72400000D01*
X139825000Y-72400000D01*
X139863268Y-72407612D01*
G37*
G36*
X140513268Y-72407612D02*
G01*
X140545711Y-72429289D01*
X140567388Y-72461732D01*
X140575000Y-72500000D01*
X140575000Y-73775000D01*
X140567388Y-73813268D01*
X140545711Y-73845711D01*
X140513268Y-73867388D01*
X140475000Y-73875000D01*
X140275000Y-73875000D01*
X140236732Y-73867388D01*
X140204289Y-73845711D01*
X140182612Y-73813268D01*
X140175000Y-73775000D01*
X140175000Y-72500000D01*
X140182612Y-72461732D01*
X140204289Y-72429289D01*
X140236732Y-72407612D01*
X140275000Y-72400000D01*
X140475000Y-72400000D01*
X140513268Y-72407612D01*
G37*
G36*
X141163268Y-72407612D02*
G01*
X141195711Y-72429289D01*
X141217388Y-72461732D01*
X141225000Y-72500000D01*
X141225000Y-73775000D01*
X141217388Y-73813268D01*
X141195711Y-73845711D01*
X141163268Y-73867388D01*
X141125000Y-73875000D01*
X140925000Y-73875000D01*
X140886732Y-73867388D01*
X140854289Y-73845711D01*
X140832612Y-73813268D01*
X140825000Y-73775000D01*
X140825000Y-72500000D01*
X140832612Y-72461732D01*
X140854289Y-72429289D01*
X140886732Y-72407612D01*
X140925000Y-72400000D01*
X141125000Y-72400000D01*
X141163268Y-72407612D01*
G37*
G36*
X141813268Y-72407612D02*
G01*
X141845711Y-72429289D01*
X141867388Y-72461732D01*
X141875000Y-72500000D01*
X141875000Y-73775000D01*
X141867388Y-73813268D01*
X141845711Y-73845711D01*
X141813268Y-73867388D01*
X141775000Y-73875000D01*
X141575000Y-73875000D01*
X141536732Y-73867388D01*
X141504289Y-73845711D01*
X141482612Y-73813268D01*
X141475000Y-73775000D01*
X141475000Y-72500000D01*
X141482612Y-72461732D01*
X141504289Y-72429289D01*
X141536732Y-72407612D01*
X141575000Y-72400000D01*
X141775000Y-72400000D01*
X141813268Y-72407612D01*
G37*
G36*
X142463268Y-72407612D02*
G01*
X142495711Y-72429289D01*
X142517388Y-72461732D01*
X142525000Y-72500000D01*
X142525000Y-73775000D01*
X142517388Y-73813268D01*
X142495711Y-73845711D01*
X142463268Y-73867388D01*
X142425000Y-73875000D01*
X142225000Y-73875000D01*
X142186732Y-73867388D01*
X142154289Y-73845711D01*
X142132612Y-73813268D01*
X142125000Y-73775000D01*
X142125000Y-72500000D01*
X142132612Y-72461732D01*
X142154289Y-72429289D01*
X142186732Y-72407612D01*
X142225000Y-72400000D01*
X142425000Y-72400000D01*
X142463268Y-72407612D01*
G37*
G36*
X143113268Y-72407612D02*
G01*
X143145711Y-72429289D01*
X143167388Y-72461732D01*
X143175000Y-72500000D01*
X143175000Y-73775000D01*
X143167388Y-73813268D01*
X143145711Y-73845711D01*
X143113268Y-73867388D01*
X143075000Y-73875000D01*
X142875000Y-73875000D01*
X142836732Y-73867388D01*
X142804289Y-73845711D01*
X142782612Y-73813268D01*
X142775000Y-73775000D01*
X142775000Y-72500000D01*
X142782612Y-72461732D01*
X142804289Y-72429289D01*
X142836732Y-72407612D01*
X142875000Y-72400000D01*
X143075000Y-72400000D01*
X143113268Y-72407612D01*
G37*
G36*
X143763268Y-72407612D02*
G01*
X143795711Y-72429289D01*
X143817388Y-72461732D01*
X143825000Y-72500000D01*
X143825000Y-73775000D01*
X143817388Y-73813268D01*
X143795711Y-73845711D01*
X143763268Y-73867388D01*
X143725000Y-73875000D01*
X143525000Y-73875000D01*
X143486732Y-73867388D01*
X143454289Y-73845711D01*
X143432612Y-73813268D01*
X143425000Y-73775000D01*
X143425000Y-72500000D01*
X143432612Y-72461732D01*
X143454289Y-72429289D01*
X143486732Y-72407612D01*
X143525000Y-72400000D01*
X143725000Y-72400000D01*
X143763268Y-72407612D01*
G37*
G36*
X144413268Y-72407612D02*
G01*
X144445711Y-72429289D01*
X144467388Y-72461732D01*
X144475000Y-72500000D01*
X144475000Y-73775000D01*
X144467388Y-73813268D01*
X144445711Y-73845711D01*
X144413268Y-73867388D01*
X144375000Y-73875000D01*
X144175000Y-73875000D01*
X144136732Y-73867388D01*
X144104289Y-73845711D01*
X144082612Y-73813268D01*
X144075000Y-73775000D01*
X144075000Y-72500000D01*
X144082612Y-72461732D01*
X144104289Y-72429289D01*
X144136732Y-72407612D01*
X144175000Y-72400000D01*
X144375000Y-72400000D01*
X144413268Y-72407612D01*
G37*
G36*
X145063268Y-72407612D02*
G01*
X145095711Y-72429289D01*
X145117388Y-72461732D01*
X145125000Y-72500000D01*
X145125000Y-73775000D01*
X145117388Y-73813268D01*
X145095711Y-73845711D01*
X145063268Y-73867388D01*
X145025000Y-73875000D01*
X144825000Y-73875000D01*
X144786732Y-73867388D01*
X144754289Y-73845711D01*
X144732612Y-73813268D01*
X144725000Y-73775000D01*
X144725000Y-72500000D01*
X144732612Y-72461732D01*
X144754289Y-72429289D01*
X144786732Y-72407612D01*
X144825000Y-72400000D01*
X145025000Y-72400000D01*
X145063268Y-72407612D01*
G37*
G36*
X145713268Y-72407612D02*
G01*
X145745711Y-72429289D01*
X145767388Y-72461732D01*
X145775000Y-72500000D01*
X145775000Y-73775000D01*
X145767388Y-73813268D01*
X145745711Y-73845711D01*
X145713268Y-73867388D01*
X145675000Y-73875000D01*
X145475000Y-73875000D01*
X145436732Y-73867388D01*
X145404289Y-73845711D01*
X145382612Y-73813268D01*
X145375000Y-73775000D01*
X145375000Y-72500000D01*
X145382612Y-72461732D01*
X145404289Y-72429289D01*
X145436732Y-72407612D01*
X145475000Y-72400000D01*
X145675000Y-72400000D01*
X145713268Y-72407612D01*
G37*
G36*
X62757403Y-71711418D02*
G01*
X62806066Y-71743934D01*
X62838582Y-71792597D01*
X62850000Y-71850000D01*
X62850000Y-73025000D01*
X62838582Y-73082403D01*
X62806066Y-73131066D01*
X62757403Y-73163582D01*
X62700000Y-73175000D01*
X62400000Y-73175000D01*
X62342597Y-73163582D01*
X62293934Y-73131066D01*
X62261418Y-73082403D01*
X62250000Y-73025000D01*
X62250000Y-71850000D01*
X62261418Y-71792597D01*
X62293934Y-71743934D01*
X62342597Y-71711418D01*
X62400000Y-71700000D01*
X62700000Y-71700000D01*
X62757403Y-71711418D01*
G37*
G36*
X64657403Y-71711418D02*
G01*
X64706066Y-71743934D01*
X64738582Y-71792597D01*
X64750000Y-71850000D01*
X64750000Y-73025000D01*
X64738582Y-73082403D01*
X64706066Y-73131066D01*
X64657403Y-73163582D01*
X64600000Y-73175000D01*
X64300000Y-73175000D01*
X64242597Y-73163582D01*
X64193934Y-73131066D01*
X64161418Y-73082403D01*
X64150000Y-73025000D01*
X64150000Y-71850000D01*
X64161418Y-71792597D01*
X64193934Y-71743934D01*
X64242597Y-71711418D01*
X64300000Y-71700000D01*
X64600000Y-71700000D01*
X64657403Y-71711418D01*
G37*
G36*
X61276662Y-71760276D02*
G01*
X61320459Y-71789541D01*
X61349724Y-71833338D01*
X61360000Y-71885000D01*
X61360000Y-72155000D01*
X61349724Y-72206662D01*
X61320459Y-72250459D01*
X61276662Y-72279724D01*
X61225000Y-72290000D01*
X60855000Y-72290000D01*
X60803338Y-72279724D01*
X60759541Y-72250459D01*
X60730276Y-72206662D01*
X60720000Y-72155000D01*
X60720000Y-71885000D01*
X60730276Y-71833338D01*
X60759541Y-71789541D01*
X60803338Y-71760276D01*
X60855000Y-71750000D01*
X61225000Y-71750000D01*
X61276662Y-71760276D01*
G37*
G36*
X66276662Y-71760276D02*
G01*
X66320459Y-71789541D01*
X66349724Y-71833338D01*
X66360000Y-71885000D01*
X66360000Y-72155000D01*
X66349724Y-72206662D01*
X66320459Y-72250459D01*
X66276662Y-72279724D01*
X66225000Y-72290000D01*
X65855000Y-72290000D01*
X65803338Y-72279724D01*
X65759541Y-72250459D01*
X65730276Y-72206662D01*
X65720000Y-72155000D01*
X65720000Y-71885000D01*
X65730276Y-71833338D01*
X65759541Y-71789541D01*
X65803338Y-71760276D01*
X65855000Y-71750000D01*
X66225000Y-71750000D01*
X66276662Y-71760276D01*
G37*
G36*
X71256790Y-69930393D02*
G01*
X71420952Y-69983733D01*
X71574748Y-70062096D01*
X71714393Y-70163553D01*
X71836447Y-70285607D01*
X71937904Y-70425252D01*
X72016267Y-70579048D01*
X72069607Y-70743210D01*
X72096609Y-70913695D01*
X72096609Y-71086305D01*
X72069607Y-71256790D01*
X72016267Y-71420952D01*
X71937904Y-71574748D01*
X71836447Y-71714393D01*
X71714393Y-71836447D01*
X71574748Y-71937904D01*
X71420952Y-72016267D01*
X71256790Y-72069607D01*
X71086305Y-72096609D01*
X70913695Y-72096609D01*
X70743210Y-72069607D01*
X70579048Y-72016267D01*
X70425252Y-71937904D01*
X70285607Y-71836447D01*
X70163553Y-71714393D01*
X70062096Y-71574748D01*
X69983733Y-71420952D01*
X69930393Y-71256790D01*
X69903391Y-71086305D01*
X69903391Y-70913695D01*
X69930393Y-70743210D01*
X69983733Y-70579048D01*
X70062096Y-70425252D01*
X70163553Y-70285607D01*
X70285607Y-70163553D01*
X70425252Y-70062096D01*
X70579048Y-69983733D01*
X70743210Y-69930393D01*
X70913695Y-69903391D01*
X71086305Y-69903391D01*
X71256790Y-69930393D01*
G37*
G36*
X128256790Y-69930393D02*
G01*
X128420952Y-69983733D01*
X128574748Y-70062096D01*
X128714393Y-70163553D01*
X128836447Y-70285607D01*
X128937904Y-70425252D01*
X129016267Y-70579048D01*
X129069607Y-70743210D01*
X129096609Y-70913695D01*
X129096609Y-71086305D01*
X129069607Y-71256790D01*
X129016267Y-71420952D01*
X128937904Y-71574748D01*
X128836447Y-71714393D01*
X128714393Y-71836447D01*
X128574748Y-71937904D01*
X128420952Y-72016267D01*
X128256790Y-72069607D01*
X128086305Y-72096609D01*
X127913695Y-72096609D01*
X127743210Y-72069607D01*
X127579048Y-72016267D01*
X127425252Y-71937904D01*
X127285607Y-71836447D01*
X127163553Y-71714393D01*
X127062096Y-71574748D01*
X126983733Y-71420952D01*
X126930393Y-71256790D01*
X126903391Y-71086305D01*
X126903391Y-70913695D01*
X126930393Y-70743210D01*
X126983733Y-70579048D01*
X127062096Y-70425252D01*
X127163553Y-70285607D01*
X127285607Y-70163553D01*
X127425252Y-70062096D01*
X127579048Y-69983733D01*
X127743210Y-69930393D01*
X127913695Y-69903391D01*
X128086305Y-69903391D01*
X128256790Y-69930393D01*
G37*
G36*
X99368400Y-71773600D02*
G01*
X97641200Y-71773600D01*
X97641200Y-70046400D01*
X99368400Y-70046400D01*
X99368400Y-71773600D01*
G37*
G36*
X91135490Y-70083586D02*
G01*
X91291898Y-70148373D01*
X91432662Y-70242428D01*
X91552372Y-70362138D01*
X91646427Y-70502902D01*
X91711214Y-70659310D01*
X91744242Y-70825352D01*
X91744242Y-70994648D01*
X91711214Y-71160690D01*
X91646427Y-71317098D01*
X91552372Y-71457862D01*
X91432662Y-71577572D01*
X91291898Y-71671627D01*
X91135490Y-71736414D01*
X90969448Y-71769442D01*
X90800152Y-71769442D01*
X90634110Y-71736414D01*
X90477702Y-71671627D01*
X90336938Y-71577572D01*
X90217228Y-71457862D01*
X90123173Y-71317098D01*
X90058386Y-71160690D01*
X90025358Y-70994648D01*
X90025358Y-70825352D01*
X90058386Y-70659310D01*
X90123173Y-70502902D01*
X90217228Y-70362138D01*
X90336938Y-70242428D01*
X90477702Y-70148373D01*
X90634110Y-70083586D01*
X90800152Y-70050558D01*
X90969448Y-70050558D01*
X91135490Y-70083586D01*
G37*
G36*
X93675490Y-70083586D02*
G01*
X93831898Y-70148373D01*
X93972662Y-70242428D01*
X94092372Y-70362138D01*
X94186427Y-70502902D01*
X94251214Y-70659310D01*
X94284242Y-70825352D01*
X94284242Y-70994648D01*
X94251214Y-71160690D01*
X94186427Y-71317098D01*
X94092372Y-71457862D01*
X93972662Y-71577572D01*
X93831898Y-71671627D01*
X93675490Y-71736414D01*
X93509448Y-71769442D01*
X93340152Y-71769442D01*
X93174110Y-71736414D01*
X93017702Y-71671627D01*
X92876938Y-71577572D01*
X92757228Y-71457862D01*
X92663173Y-71317098D01*
X92598386Y-71160690D01*
X92565358Y-70994648D01*
X92565358Y-70825352D01*
X92598386Y-70659310D01*
X92663173Y-70502902D01*
X92757228Y-70362138D01*
X92876938Y-70242428D01*
X93017702Y-70148373D01*
X93174110Y-70083586D01*
X93340152Y-70050558D01*
X93509448Y-70050558D01*
X93675490Y-70083586D01*
G37*
G36*
X96215490Y-70083586D02*
G01*
X96371898Y-70148373D01*
X96512662Y-70242428D01*
X96632372Y-70362138D01*
X96726427Y-70502902D01*
X96791214Y-70659310D01*
X96824242Y-70825352D01*
X96824242Y-70994648D01*
X96791214Y-71160690D01*
X96726427Y-71317098D01*
X96632372Y-71457862D01*
X96512662Y-71577572D01*
X96371898Y-71671627D01*
X96215490Y-71736414D01*
X96049448Y-71769442D01*
X95880152Y-71769442D01*
X95714110Y-71736414D01*
X95557702Y-71671627D01*
X95416938Y-71577572D01*
X95297228Y-71457862D01*
X95203173Y-71317098D01*
X95138386Y-71160690D01*
X95105358Y-70994648D01*
X95105358Y-70825352D01*
X95138386Y-70659310D01*
X95203173Y-70502902D01*
X95297228Y-70362138D01*
X95416938Y-70242428D01*
X95557702Y-70148373D01*
X95714110Y-70083586D01*
X95880152Y-70050558D01*
X96049448Y-70050558D01*
X96215490Y-70083586D01*
G37*
G36*
X101295490Y-70083586D02*
G01*
X101451898Y-70148373D01*
X101592662Y-70242428D01*
X101712372Y-70362138D01*
X101806427Y-70502902D01*
X101871214Y-70659310D01*
X101904242Y-70825352D01*
X101904242Y-70994648D01*
X101871214Y-71160690D01*
X101806427Y-71317098D01*
X101712372Y-71457862D01*
X101592662Y-71577572D01*
X101451898Y-71671627D01*
X101295490Y-71736414D01*
X101129448Y-71769442D01*
X100960152Y-71769442D01*
X100794110Y-71736414D01*
X100637702Y-71671627D01*
X100496938Y-71577572D01*
X100377228Y-71457862D01*
X100283173Y-71317098D01*
X100218386Y-71160690D01*
X100185358Y-70994648D01*
X100185358Y-70825352D01*
X100218386Y-70659310D01*
X100283173Y-70502902D01*
X100377228Y-70362138D01*
X100496938Y-70242428D01*
X100637702Y-70148373D01*
X100794110Y-70083586D01*
X100960152Y-70050558D01*
X101129448Y-70050558D01*
X101295490Y-70083586D01*
G37*
G36*
X103835490Y-70083586D02*
G01*
X103991898Y-70148373D01*
X104132662Y-70242428D01*
X104252372Y-70362138D01*
X104346427Y-70502902D01*
X104411214Y-70659310D01*
X104444242Y-70825352D01*
X104444242Y-70994648D01*
X104411214Y-71160690D01*
X104346427Y-71317098D01*
X104252372Y-71457862D01*
X104132662Y-71577572D01*
X103991898Y-71671627D01*
X103835490Y-71736414D01*
X103669448Y-71769442D01*
X103500152Y-71769442D01*
X103334110Y-71736414D01*
X103177702Y-71671627D01*
X103036938Y-71577572D01*
X102917228Y-71457862D01*
X102823173Y-71317098D01*
X102758386Y-71160690D01*
X102725358Y-70994648D01*
X102725358Y-70825352D01*
X102758386Y-70659310D01*
X102823173Y-70502902D01*
X102917228Y-70362138D01*
X103036938Y-70242428D01*
X103177702Y-70148373D01*
X103334110Y-70083586D01*
X103500152Y-70050558D01*
X103669448Y-70050558D01*
X103835490Y-70083586D01*
G37*
G36*
X106375490Y-70083586D02*
G01*
X106531898Y-70148373D01*
X106672662Y-70242428D01*
X106792372Y-70362138D01*
X106886427Y-70502902D01*
X106951214Y-70659310D01*
X106984242Y-70825352D01*
X106984242Y-70994648D01*
X106951214Y-71160690D01*
X106886427Y-71317098D01*
X106792372Y-71457862D01*
X106672662Y-71577572D01*
X106531898Y-71671627D01*
X106375490Y-71736414D01*
X106209448Y-71769442D01*
X106040152Y-71769442D01*
X105874110Y-71736414D01*
X105717702Y-71671627D01*
X105576938Y-71577572D01*
X105457228Y-71457862D01*
X105363173Y-71317098D01*
X105298386Y-71160690D01*
X105265358Y-70994648D01*
X105265358Y-70825352D01*
X105298386Y-70659310D01*
X105363173Y-70502902D01*
X105457228Y-70362138D01*
X105576938Y-70242428D01*
X105717702Y-70148373D01*
X105874110Y-70083586D01*
X106040152Y-70050558D01*
X106209448Y-70050558D01*
X106375490Y-70083586D01*
G37*
G36*
X108915490Y-70083586D02*
G01*
X109071898Y-70148373D01*
X109212662Y-70242428D01*
X109332372Y-70362138D01*
X109426427Y-70502902D01*
X109491214Y-70659310D01*
X109524242Y-70825352D01*
X109524242Y-70994648D01*
X109491214Y-71160690D01*
X109426427Y-71317098D01*
X109332372Y-71457862D01*
X109212662Y-71577572D01*
X109071898Y-71671627D01*
X108915490Y-71736414D01*
X108749448Y-71769442D01*
X108580152Y-71769442D01*
X108414110Y-71736414D01*
X108257702Y-71671627D01*
X108116938Y-71577572D01*
X107997228Y-71457862D01*
X107903173Y-71317098D01*
X107838386Y-71160690D01*
X107805358Y-70994648D01*
X107805358Y-70825352D01*
X107838386Y-70659310D01*
X107903173Y-70502902D01*
X107997228Y-70362138D01*
X108116938Y-70242428D01*
X108257702Y-70148373D01*
X108414110Y-70083586D01*
X108580152Y-70050558D01*
X108749448Y-70050558D01*
X108915490Y-70083586D01*
G37*
G36*
X111455490Y-70083586D02*
G01*
X111611898Y-70148373D01*
X111752662Y-70242428D01*
X111872372Y-70362138D01*
X111966427Y-70502902D01*
X112031214Y-70659310D01*
X112064242Y-70825352D01*
X112064242Y-70994648D01*
X112031214Y-71160690D01*
X111966427Y-71317098D01*
X111872372Y-71457862D01*
X111752662Y-71577572D01*
X111611898Y-71671627D01*
X111455490Y-71736414D01*
X111289448Y-71769442D01*
X111120152Y-71769442D01*
X110954110Y-71736414D01*
X110797702Y-71671627D01*
X110656938Y-71577572D01*
X110537228Y-71457862D01*
X110443173Y-71317098D01*
X110378386Y-71160690D01*
X110345358Y-70994648D01*
X110345358Y-70825352D01*
X110378386Y-70659310D01*
X110443173Y-70502902D01*
X110537228Y-70362138D01*
X110656938Y-70242428D01*
X110797702Y-70148373D01*
X110954110Y-70083586D01*
X111120152Y-70050558D01*
X111289448Y-70050558D01*
X111455490Y-70083586D01*
G37*
G36*
X113995490Y-70083586D02*
G01*
X114151898Y-70148373D01*
X114292662Y-70242428D01*
X114412372Y-70362138D01*
X114506427Y-70502902D01*
X114571214Y-70659310D01*
X114604242Y-70825352D01*
X114604242Y-70994648D01*
X114571214Y-71160690D01*
X114506427Y-71317098D01*
X114412372Y-71457862D01*
X114292662Y-71577572D01*
X114151898Y-71671627D01*
X113995490Y-71736414D01*
X113829448Y-71769442D01*
X113660152Y-71769442D01*
X113494110Y-71736414D01*
X113337702Y-71671627D01*
X113196938Y-71577572D01*
X113077228Y-71457862D01*
X112983173Y-71317098D01*
X112918386Y-71160690D01*
X112885358Y-70994648D01*
X112885358Y-70825352D01*
X112918386Y-70659310D01*
X112983173Y-70502902D01*
X113077228Y-70362138D01*
X113196938Y-70242428D01*
X113337702Y-70148373D01*
X113494110Y-70083586D01*
X113660152Y-70050558D01*
X113829448Y-70050558D01*
X113995490Y-70083586D01*
G37*
G36*
X116535490Y-70083586D02*
G01*
X116691898Y-70148373D01*
X116832662Y-70242428D01*
X116952372Y-70362138D01*
X117046427Y-70502902D01*
X117111214Y-70659310D01*
X117144242Y-70825352D01*
X117144242Y-70994648D01*
X117111214Y-71160690D01*
X117046427Y-71317098D01*
X116952372Y-71457862D01*
X116832662Y-71577572D01*
X116691898Y-71671627D01*
X116535490Y-71736414D01*
X116369448Y-71769442D01*
X116200152Y-71769442D01*
X116034110Y-71736414D01*
X115877702Y-71671627D01*
X115736938Y-71577572D01*
X115617228Y-71457862D01*
X115523173Y-71317098D01*
X115458386Y-71160690D01*
X115425358Y-70994648D01*
X115425358Y-70825352D01*
X115458386Y-70659310D01*
X115523173Y-70502902D01*
X115617228Y-70362138D01*
X115736938Y-70242428D01*
X115877702Y-70148373D01*
X116034110Y-70083586D01*
X116200152Y-70050558D01*
X116369448Y-70050558D01*
X116535490Y-70083586D01*
G37*
G36*
X119075490Y-70083586D02*
G01*
X119231898Y-70148373D01*
X119372662Y-70242428D01*
X119492372Y-70362138D01*
X119586427Y-70502902D01*
X119651214Y-70659310D01*
X119684242Y-70825352D01*
X119684242Y-70994648D01*
X119651214Y-71160690D01*
X119586427Y-71317098D01*
X119492372Y-71457862D01*
X119372662Y-71577572D01*
X119231898Y-71671627D01*
X119075490Y-71736414D01*
X118909448Y-71769442D01*
X118740152Y-71769442D01*
X118574110Y-71736414D01*
X118417702Y-71671627D01*
X118276938Y-71577572D01*
X118157228Y-71457862D01*
X118063173Y-71317098D01*
X117998386Y-71160690D01*
X117965358Y-70994648D01*
X117965358Y-70825352D01*
X117998386Y-70659310D01*
X118063173Y-70502902D01*
X118157228Y-70362138D01*
X118276938Y-70242428D01*
X118417702Y-70148373D01*
X118574110Y-70083586D01*
X118740152Y-70050558D01*
X118909448Y-70050558D01*
X119075490Y-70083586D01*
G37*
G36*
X121615490Y-70083586D02*
G01*
X121771898Y-70148373D01*
X121912662Y-70242428D01*
X122032372Y-70362138D01*
X122126427Y-70502902D01*
X122191214Y-70659310D01*
X122224242Y-70825352D01*
X122224242Y-70994648D01*
X122191214Y-71160690D01*
X122126427Y-71317098D01*
X122032372Y-71457862D01*
X121912662Y-71577572D01*
X121771898Y-71671627D01*
X121615490Y-71736414D01*
X121449448Y-71769442D01*
X121280152Y-71769442D01*
X121114110Y-71736414D01*
X120957702Y-71671627D01*
X120816938Y-71577572D01*
X120697228Y-71457862D01*
X120603173Y-71317098D01*
X120538386Y-71160690D01*
X120505358Y-70994648D01*
X120505358Y-70825352D01*
X120538386Y-70659310D01*
X120603173Y-70502902D01*
X120697228Y-70362138D01*
X120816938Y-70242428D01*
X120957702Y-70148373D01*
X121114110Y-70083586D01*
X121280152Y-70050558D01*
X121449448Y-70050558D01*
X121615490Y-70083586D01*
G37*
G36*
X124155490Y-70083586D02*
G01*
X124311898Y-70148373D01*
X124452662Y-70242428D01*
X124572372Y-70362138D01*
X124666427Y-70502902D01*
X124731214Y-70659310D01*
X124764242Y-70825352D01*
X124764242Y-70994648D01*
X124731214Y-71160690D01*
X124666427Y-71317098D01*
X124572372Y-71457862D01*
X124452662Y-71577572D01*
X124311898Y-71671627D01*
X124155490Y-71736414D01*
X123989448Y-71769442D01*
X123820152Y-71769442D01*
X123654110Y-71736414D01*
X123497702Y-71671627D01*
X123356938Y-71577572D01*
X123237228Y-71457862D01*
X123143173Y-71317098D01*
X123078386Y-71160690D01*
X123045358Y-70994648D01*
X123045358Y-70825352D01*
X123078386Y-70659310D01*
X123143173Y-70502902D01*
X123237228Y-70362138D01*
X123356938Y-70242428D01*
X123497702Y-70148373D01*
X123654110Y-70083586D01*
X123820152Y-70050558D01*
X123989448Y-70050558D01*
X124155490Y-70083586D01*
G37*
G36*
X63707403Y-69836418D02*
G01*
X63756066Y-69868934D01*
X63788582Y-69917597D01*
X63800000Y-69975000D01*
X63800000Y-71150000D01*
X63788582Y-71207403D01*
X63756066Y-71256066D01*
X63707403Y-71288582D01*
X63650000Y-71300000D01*
X63350000Y-71300000D01*
X63292597Y-71288582D01*
X63243934Y-71256066D01*
X63211418Y-71207403D01*
X63200000Y-71150000D01*
X63200000Y-69975000D01*
X63211418Y-69917597D01*
X63243934Y-69868934D01*
X63292597Y-69836418D01*
X63350000Y-69825000D01*
X63650000Y-69825000D01*
X63707403Y-69836418D01*
G37*
G36*
X61276662Y-70740276D02*
G01*
X61320459Y-70769541D01*
X61349724Y-70813338D01*
X61360000Y-70865000D01*
X61360000Y-71135000D01*
X61349724Y-71186662D01*
X61320459Y-71230459D01*
X61276662Y-71259724D01*
X61225000Y-71270000D01*
X60855000Y-71270000D01*
X60803338Y-71259724D01*
X60759541Y-71230459D01*
X60730276Y-71186662D01*
X60720000Y-71135000D01*
X60720000Y-70865000D01*
X60730276Y-70813338D01*
X60759541Y-70769541D01*
X60803338Y-70740276D01*
X60855000Y-70730000D01*
X61225000Y-70730000D01*
X61276662Y-70740276D01*
G37*
G36*
X66276662Y-70740276D02*
G01*
X66320459Y-70769541D01*
X66349724Y-70813338D01*
X66360000Y-70865000D01*
X66360000Y-71135000D01*
X66349724Y-71186662D01*
X66320459Y-71230459D01*
X66276662Y-71259724D01*
X66225000Y-71270000D01*
X65855000Y-71270000D01*
X65803338Y-71259724D01*
X65759541Y-71230459D01*
X65730276Y-71186662D01*
X65720000Y-71135000D01*
X65720000Y-70865000D01*
X65730276Y-70813338D01*
X65759541Y-70769541D01*
X65803338Y-70740276D01*
X65855000Y-70730000D01*
X66225000Y-70730000D01*
X66276662Y-70740276D01*
G37*
G36*
X232272810Y-62320667D02*
G01*
X232443019Y-62391170D01*
X232596203Y-62493525D01*
X232726475Y-62623797D01*
X232828830Y-62776981D01*
X232899333Y-62947190D01*
X232935275Y-63127883D01*
X232935275Y-63312117D01*
X232899333Y-63492810D01*
X232828830Y-63663019D01*
X232726475Y-63816203D01*
X232596203Y-63946475D01*
X232443019Y-64048830D01*
X232272810Y-64119333D01*
X232092117Y-64155275D01*
X231907883Y-64155275D01*
X231727190Y-64119333D01*
X231556981Y-64048830D01*
X231403797Y-63946475D01*
X231273525Y-63816203D01*
X231171170Y-63663019D01*
X231100667Y-63492810D01*
X231064725Y-63312117D01*
X231064725Y-63127883D01*
X231100667Y-62947190D01*
X231171170Y-62776981D01*
X231273525Y-62623797D01*
X231403797Y-62493525D01*
X231556981Y-62391170D01*
X231727190Y-62320667D01*
X231907883Y-62284725D01*
X232092117Y-62284725D01*
X232272810Y-62320667D01*
G37*
G36*
X232272810Y-59780667D02*
G01*
X232443019Y-59851170D01*
X232596203Y-59953525D01*
X232726475Y-60083797D01*
X232828830Y-60236981D01*
X232899333Y-60407190D01*
X232935275Y-60587883D01*
X232935275Y-60772117D01*
X232899333Y-60952810D01*
X232828830Y-61123019D01*
X232726475Y-61276203D01*
X232596203Y-61406475D01*
X232443019Y-61508830D01*
X232272810Y-61579333D01*
X232092117Y-61615275D01*
X231907883Y-61615275D01*
X231727190Y-61579333D01*
X231556981Y-61508830D01*
X231403797Y-61406475D01*
X231273525Y-61276203D01*
X231171170Y-61123019D01*
X231100667Y-60952810D01*
X231064725Y-60772117D01*
X231064725Y-60587883D01*
X231100667Y-60407190D01*
X231171170Y-60236981D01*
X231273525Y-60083797D01*
X231403797Y-59953525D01*
X231556981Y-59851170D01*
X231727190Y-59780667D01*
X231907883Y-59744725D01*
X232092117Y-59744725D01*
X232272810Y-59780667D01*
G37*
G36*
X218057518Y-57918491D02*
G01*
X218202589Y-57978581D01*
X218333149Y-58065819D01*
X218444181Y-58176851D01*
X218531419Y-58307411D01*
X218591509Y-58452482D01*
X218622143Y-58606488D01*
X218622143Y-58763512D01*
X218591509Y-58917518D01*
X218531419Y-59062589D01*
X218444181Y-59193149D01*
X218333149Y-59304181D01*
X218202589Y-59391419D01*
X218057518Y-59451509D01*
X217903512Y-59482143D01*
X217746488Y-59482143D01*
X217592482Y-59451509D01*
X217447411Y-59391419D01*
X217316851Y-59304181D01*
X217205819Y-59193149D01*
X217118581Y-59062589D01*
X217058491Y-58917518D01*
X217027857Y-58763512D01*
X217027857Y-58606488D01*
X217058491Y-58452482D01*
X217118581Y-58307411D01*
X217205819Y-58176851D01*
X217316851Y-58065819D01*
X217447411Y-57978581D01*
X217592482Y-57918491D01*
X217746488Y-57887857D01*
X217903512Y-57887857D01*
X218057518Y-57918491D01*
G37*
G36*
X220597518Y-57918491D02*
G01*
X220742589Y-57978581D01*
X220873149Y-58065819D01*
X220984181Y-58176851D01*
X221071419Y-58307411D01*
X221131509Y-58452482D01*
X221162143Y-58606488D01*
X221162143Y-58763512D01*
X221131509Y-58917518D01*
X221071419Y-59062589D01*
X220984181Y-59193149D01*
X220873149Y-59304181D01*
X220742589Y-59391419D01*
X220597518Y-59451509D01*
X220443512Y-59482143D01*
X220286488Y-59482143D01*
X220132482Y-59451509D01*
X219987411Y-59391419D01*
X219856851Y-59304181D01*
X219745819Y-59193149D01*
X219658581Y-59062589D01*
X219598491Y-58917518D01*
X219567857Y-58763512D01*
X219567857Y-58606488D01*
X219598491Y-58452482D01*
X219658581Y-58307411D01*
X219745819Y-58176851D01*
X219856851Y-58065819D01*
X219987411Y-57978581D01*
X220132482Y-57918491D01*
X220286488Y-57887857D01*
X220443512Y-57887857D01*
X220597518Y-57918491D01*
G37*
G36*
X223137518Y-57918491D02*
G01*
X223282589Y-57978581D01*
X223413149Y-58065819D01*
X223524181Y-58176851D01*
X223611419Y-58307411D01*
X223671509Y-58452482D01*
X223702143Y-58606488D01*
X223702143Y-58763512D01*
X223671509Y-58917518D01*
X223611419Y-59062589D01*
X223524181Y-59193149D01*
X223413149Y-59304181D01*
X223282589Y-59391419D01*
X223137518Y-59451509D01*
X222983512Y-59482143D01*
X222826488Y-59482143D01*
X222672482Y-59451509D01*
X222527411Y-59391419D01*
X222396851Y-59304181D01*
X222285819Y-59193149D01*
X222198581Y-59062589D01*
X222138491Y-58917518D01*
X222107857Y-58763512D01*
X222107857Y-58606488D01*
X222138491Y-58452482D01*
X222198581Y-58307411D01*
X222285819Y-58176851D01*
X222396851Y-58065819D01*
X222527411Y-57978581D01*
X222672482Y-57918491D01*
X222826488Y-57887857D01*
X222983512Y-57887857D01*
X223137518Y-57918491D01*
G37*
G36*
X225677518Y-57918491D02*
G01*
X225822589Y-57978581D01*
X225953149Y-58065819D01*
X226064181Y-58176851D01*
X226151419Y-58307411D01*
X226211509Y-58452482D01*
X226242143Y-58606488D01*
X226242143Y-58763512D01*
X226211509Y-58917518D01*
X226151419Y-59062589D01*
X226064181Y-59193149D01*
X225953149Y-59304181D01*
X225822589Y-59391419D01*
X225677518Y-59451509D01*
X225523512Y-59482143D01*
X225366488Y-59482143D01*
X225212482Y-59451509D01*
X225067411Y-59391419D01*
X224936851Y-59304181D01*
X224825819Y-59193149D01*
X224738581Y-59062589D01*
X224678491Y-58917518D01*
X224647857Y-58763512D01*
X224647857Y-58606488D01*
X224678491Y-58452482D01*
X224738581Y-58307411D01*
X224825819Y-58176851D01*
X224936851Y-58065819D01*
X225067411Y-57978581D01*
X225212482Y-57918491D01*
X225366488Y-57887857D01*
X225523512Y-57887857D01*
X225677518Y-57918491D01*
G37*
G36*
X232272810Y-57240667D02*
G01*
X232443019Y-57311170D01*
X232596203Y-57413525D01*
X232726475Y-57543797D01*
X232828830Y-57696981D01*
X232899333Y-57867190D01*
X232935275Y-58047883D01*
X232935275Y-58232117D01*
X232899333Y-58412810D01*
X232828830Y-58583019D01*
X232726475Y-58736203D01*
X232596203Y-58866475D01*
X232443019Y-58968830D01*
X232272810Y-59039333D01*
X232092117Y-59075275D01*
X231907883Y-59075275D01*
X231727190Y-59039333D01*
X231556981Y-58968830D01*
X231403797Y-58866475D01*
X231273525Y-58736203D01*
X231171170Y-58583019D01*
X231100667Y-58412810D01*
X231064725Y-58232117D01*
X231064725Y-58047883D01*
X231100667Y-57867190D01*
X231171170Y-57696981D01*
X231273525Y-57543797D01*
X231403797Y-57413525D01*
X231556981Y-57311170D01*
X231727190Y-57240667D01*
X231907883Y-57204725D01*
X232092117Y-57204725D01*
X232272810Y-57240667D01*
G37*
G36*
X217293034Y-55351764D02*
G01*
X217326125Y-55373875D01*
X217348236Y-55406966D01*
X217356000Y-55446000D01*
X217356000Y-56844000D01*
X217348236Y-56883034D01*
X217326125Y-56916125D01*
X217293034Y-56938236D01*
X217254000Y-56946000D01*
X215856000Y-56946000D01*
X215816966Y-56938236D01*
X215783875Y-56916125D01*
X215761764Y-56883034D01*
X215754000Y-56844000D01*
X215754000Y-55446000D01*
X215761764Y-55406966D01*
X215783875Y-55373875D01*
X215816966Y-55351764D01*
X215856000Y-55344000D01*
X217254000Y-55344000D01*
X217293034Y-55351764D01*
G37*
G36*
X219327518Y-55378491D02*
G01*
X219472589Y-55438581D01*
X219603149Y-55525819D01*
X219714181Y-55636851D01*
X219801419Y-55767411D01*
X219861509Y-55912482D01*
X219892143Y-56066488D01*
X219892143Y-56223512D01*
X219861509Y-56377518D01*
X219801419Y-56522589D01*
X219714181Y-56653149D01*
X219603149Y-56764181D01*
X219472589Y-56851419D01*
X219327518Y-56911509D01*
X219173512Y-56942143D01*
X219016488Y-56942143D01*
X218862482Y-56911509D01*
X218717411Y-56851419D01*
X218586851Y-56764181D01*
X218475819Y-56653149D01*
X218388581Y-56522589D01*
X218328491Y-56377518D01*
X218297857Y-56223512D01*
X218297857Y-56066488D01*
X218328491Y-55912482D01*
X218388581Y-55767411D01*
X218475819Y-55636851D01*
X218586851Y-55525819D01*
X218717411Y-55438581D01*
X218862482Y-55378491D01*
X219016488Y-55347857D01*
X219173512Y-55347857D01*
X219327518Y-55378491D01*
G37*
G36*
X221867518Y-55378491D02*
G01*
X222012589Y-55438581D01*
X222143149Y-55525819D01*
X222254181Y-55636851D01*
X222341419Y-55767411D01*
X222401509Y-55912482D01*
X222432143Y-56066488D01*
X222432143Y-56223512D01*
X222401509Y-56377518D01*
X222341419Y-56522589D01*
X222254181Y-56653149D01*
X222143149Y-56764181D01*
X222012589Y-56851419D01*
X221867518Y-56911509D01*
X221713512Y-56942143D01*
X221556488Y-56942143D01*
X221402482Y-56911509D01*
X221257411Y-56851419D01*
X221126851Y-56764181D01*
X221015819Y-56653149D01*
X220928581Y-56522589D01*
X220868491Y-56377518D01*
X220837857Y-56223512D01*
X220837857Y-56066488D01*
X220868491Y-55912482D01*
X220928581Y-55767411D01*
X221015819Y-55636851D01*
X221126851Y-55525819D01*
X221257411Y-55438581D01*
X221402482Y-55378491D01*
X221556488Y-55347857D01*
X221713512Y-55347857D01*
X221867518Y-55378491D01*
G37*
G36*
X224407518Y-55378491D02*
G01*
X224552589Y-55438581D01*
X224683149Y-55525819D01*
X224794181Y-55636851D01*
X224881419Y-55767411D01*
X224941509Y-55912482D01*
X224972143Y-56066488D01*
X224972143Y-56223512D01*
X224941509Y-56377518D01*
X224881419Y-56522589D01*
X224794181Y-56653149D01*
X224683149Y-56764181D01*
X224552589Y-56851419D01*
X224407518Y-56911509D01*
X224253512Y-56942143D01*
X224096488Y-56942143D01*
X223942482Y-56911509D01*
X223797411Y-56851419D01*
X223666851Y-56764181D01*
X223555819Y-56653149D01*
X223468581Y-56522589D01*
X223408491Y-56377518D01*
X223377857Y-56223512D01*
X223377857Y-56066488D01*
X223408491Y-55912482D01*
X223468581Y-55767411D01*
X223555819Y-55636851D01*
X223666851Y-55525819D01*
X223797411Y-55438581D01*
X223942482Y-55378491D01*
X224096488Y-55347857D01*
X224253512Y-55347857D01*
X224407518Y-55378491D01*
G37*
G36*
X211155552Y-56208564D02*
G01*
X211192050Y-56232950D01*
X211216436Y-56269448D01*
X211225000Y-56312500D01*
X211225000Y-56687500D01*
X211216436Y-56730552D01*
X211192050Y-56767050D01*
X211155552Y-56791436D01*
X211112500Y-56800000D01*
X210887500Y-56800000D01*
X210844448Y-56791436D01*
X210807950Y-56767050D01*
X210783564Y-56730552D01*
X210775000Y-56687500D01*
X210775000Y-56312500D01*
X210783564Y-56269448D01*
X210807950Y-56232950D01*
X210844448Y-56208564D01*
X210887500Y-56200000D01*
X211112500Y-56200000D01*
X211155552Y-56208564D01*
G37*
G36*
X232272810Y-54700667D02*
G01*
X232443019Y-54771170D01*
X232596203Y-54873525D01*
X232726475Y-55003797D01*
X232828830Y-55156981D01*
X232899333Y-55327190D01*
X232935275Y-55507883D01*
X232935275Y-55692117D01*
X232899333Y-55872810D01*
X232828830Y-56043019D01*
X232726475Y-56196203D01*
X232596203Y-56326475D01*
X232443019Y-56428830D01*
X232272810Y-56499333D01*
X232092117Y-56535275D01*
X231907883Y-56535275D01*
X231727190Y-56499333D01*
X231556981Y-56428830D01*
X231403797Y-56326475D01*
X231273525Y-56196203D01*
X231171170Y-56043019D01*
X231100667Y-55872810D01*
X231064725Y-55692117D01*
X231064725Y-55507883D01*
X231100667Y-55327190D01*
X231171170Y-55156981D01*
X231273525Y-55003797D01*
X231403797Y-54873525D01*
X231556981Y-54771170D01*
X231727190Y-54700667D01*
X231907883Y-54664725D01*
X232092117Y-54664725D01*
X232272810Y-54700667D01*
G37*
G36*
X211155552Y-54108564D02*
G01*
X211192050Y-54132950D01*
X211216436Y-54169448D01*
X211225000Y-54212500D01*
X211225000Y-54587500D01*
X211216436Y-54630552D01*
X211192050Y-54667050D01*
X211155552Y-54691436D01*
X211112500Y-54700000D01*
X210887500Y-54700000D01*
X210844448Y-54691436D01*
X210807950Y-54667050D01*
X210783564Y-54630552D01*
X210775000Y-54587500D01*
X210775000Y-54212500D01*
X210783564Y-54169448D01*
X210807950Y-54132950D01*
X210844448Y-54108564D01*
X210887500Y-54100000D01*
X211112500Y-54100000D01*
X211155552Y-54108564D01*
G37*
G36*
X65155552Y-53258564D02*
G01*
X65192050Y-53282950D01*
X65216436Y-53319448D01*
X65225000Y-53362500D01*
X65225000Y-53737500D01*
X65216436Y-53780552D01*
X65192050Y-53817050D01*
X65155552Y-53841436D01*
X65112500Y-53850000D01*
X64887500Y-53850000D01*
X64844448Y-53841436D01*
X64807950Y-53817050D01*
X64783564Y-53780552D01*
X64775000Y-53737500D01*
X64775000Y-53362500D01*
X64783564Y-53319448D01*
X64807950Y-53282950D01*
X64844448Y-53258564D01*
X64887500Y-53250000D01*
X65112500Y-53250000D01*
X65155552Y-53258564D01*
G37*
G36*
X139692810Y-51100667D02*
G01*
X139863019Y-51171170D01*
X140016203Y-51273525D01*
X140146475Y-51403797D01*
X140248830Y-51556981D01*
X140319333Y-51727190D01*
X140355275Y-51907883D01*
X140355275Y-52092117D01*
X140319333Y-52272810D01*
X140248830Y-52443019D01*
X140146475Y-52596203D01*
X140016203Y-52726475D01*
X139863019Y-52828830D01*
X139692810Y-52899333D01*
X139512117Y-52935275D01*
X139327883Y-52935275D01*
X139147190Y-52899333D01*
X138976981Y-52828830D01*
X138823797Y-52726475D01*
X138693525Y-52596203D01*
X138591170Y-52443019D01*
X138520667Y-52272810D01*
X138484725Y-52092117D01*
X138484725Y-51907883D01*
X138520667Y-51727190D01*
X138591170Y-51556981D01*
X138693525Y-51403797D01*
X138823797Y-51273525D01*
X138976981Y-51171170D01*
X139147190Y-51100667D01*
X139327883Y-51064725D01*
X139512117Y-51064725D01*
X139692810Y-51100667D01*
G37*
G36*
X142232810Y-51100667D02*
G01*
X142403019Y-51171170D01*
X142556203Y-51273525D01*
X142686475Y-51403797D01*
X142788830Y-51556981D01*
X142859333Y-51727190D01*
X142895275Y-51907883D01*
X142895275Y-52092117D01*
X142859333Y-52272810D01*
X142788830Y-52443019D01*
X142686475Y-52596203D01*
X142556203Y-52726475D01*
X142403019Y-52828830D01*
X142232810Y-52899333D01*
X142052117Y-52935275D01*
X141867883Y-52935275D01*
X141687190Y-52899333D01*
X141516981Y-52828830D01*
X141363797Y-52726475D01*
X141233525Y-52596203D01*
X141131170Y-52443019D01*
X141060667Y-52272810D01*
X141024725Y-52092117D01*
X141024725Y-51907883D01*
X141060667Y-51727190D01*
X141131170Y-51556981D01*
X141233525Y-51403797D01*
X141363797Y-51273525D01*
X141516981Y-51171170D01*
X141687190Y-51100667D01*
X141867883Y-51064725D01*
X142052117Y-51064725D01*
X142232810Y-51100667D01*
G37*
G36*
X144772810Y-51100667D02*
G01*
X144943019Y-51171170D01*
X145096203Y-51273525D01*
X145226475Y-51403797D01*
X145328830Y-51556981D01*
X145399333Y-51727190D01*
X145435275Y-51907883D01*
X145435275Y-52092117D01*
X145399333Y-52272810D01*
X145328830Y-52443019D01*
X145226475Y-52596203D01*
X145096203Y-52726475D01*
X144943019Y-52828830D01*
X144772810Y-52899333D01*
X144592117Y-52935275D01*
X144407883Y-52935275D01*
X144227190Y-52899333D01*
X144056981Y-52828830D01*
X143903797Y-52726475D01*
X143773525Y-52596203D01*
X143671170Y-52443019D01*
X143600667Y-52272810D01*
X143564725Y-52092117D01*
X143564725Y-51907883D01*
X143600667Y-51727190D01*
X143671170Y-51556981D01*
X143773525Y-51403797D01*
X143903797Y-51273525D01*
X144056981Y-51171170D01*
X144227190Y-51100667D01*
X144407883Y-51064725D01*
X144592117Y-51064725D01*
X144772810Y-51100667D01*
G37*
G36*
X49469017Y-46239561D02*
G01*
X49775139Y-46309431D01*
X50071514Y-46413137D01*
X50354413Y-46549374D01*
X50620280Y-46716430D01*
X50865770Y-46912202D01*
X51087798Y-47134230D01*
X51283570Y-47379720D01*
X51450626Y-47645587D01*
X51586863Y-47928486D01*
X51690569Y-48224861D01*
X51760439Y-48530983D01*
X51795595Y-48843003D01*
X51795595Y-49156997D01*
X51760439Y-49469017D01*
X51690569Y-49775139D01*
X51586863Y-50071514D01*
X51450626Y-50354413D01*
X51283570Y-50620280D01*
X51087798Y-50865770D01*
X50865770Y-51087798D01*
X50620280Y-51283570D01*
X50354413Y-51450626D01*
X50071514Y-51586863D01*
X49775139Y-51690569D01*
X49469017Y-51760439D01*
X49156997Y-51795595D01*
X48843003Y-51795595D01*
X48530983Y-51760439D01*
X48224861Y-51690569D01*
X47928486Y-51586863D01*
X47645587Y-51450626D01*
X47379720Y-51283570D01*
X47134230Y-51087798D01*
X46912202Y-50865770D01*
X46716430Y-50620280D01*
X46549374Y-50354413D01*
X46413137Y-50071514D01*
X46309431Y-49775139D01*
X46239561Y-49469017D01*
X46204405Y-49156997D01*
X46204405Y-48843003D01*
X46239561Y-48530983D01*
X46309431Y-48224861D01*
X46413137Y-47928486D01*
X46549374Y-47645587D01*
X46716430Y-47379720D01*
X46912202Y-47134230D01*
X47134230Y-46912202D01*
X47379720Y-46716430D01*
X47645587Y-46549374D01*
X47928486Y-46413137D01*
X48224861Y-46309431D01*
X48530983Y-46239561D01*
X48843003Y-46204405D01*
X49156997Y-46204405D01*
X49469017Y-46239561D01*
G37*
G36*
X235469017Y-46239561D02*
G01*
X235775139Y-46309431D01*
X236071514Y-46413137D01*
X236354413Y-46549374D01*
X236620280Y-46716430D01*
X236865770Y-46912202D01*
X237087798Y-47134230D01*
X237283570Y-47379720D01*
X237450626Y-47645587D01*
X237586863Y-47928486D01*
X237690569Y-48224861D01*
X237760439Y-48530983D01*
X237795595Y-48843003D01*
X237795595Y-49156997D01*
X237760439Y-49469017D01*
X237690569Y-49775139D01*
X237586863Y-50071514D01*
X237450626Y-50354413D01*
X237283570Y-50620280D01*
X237087798Y-50865770D01*
X236865770Y-51087798D01*
X236620280Y-51283570D01*
X236354413Y-51450626D01*
X236071514Y-51586863D01*
X235775139Y-51690569D01*
X235469017Y-51760439D01*
X235156997Y-51795595D01*
X234843003Y-51795595D01*
X234530983Y-51760439D01*
X234224861Y-51690569D01*
X233928486Y-51586863D01*
X233645587Y-51450626D01*
X233379720Y-51283570D01*
X233134230Y-51087798D01*
X232912202Y-50865770D01*
X232716430Y-50620280D01*
X232549374Y-50354413D01*
X232413137Y-50071514D01*
X232309431Y-49775139D01*
X232239561Y-49469017D01*
X232204405Y-49156997D01*
X232204405Y-48843003D01*
X232239561Y-48530983D01*
X232309431Y-48224861D01*
X232413137Y-47928486D01*
X232549374Y-47645587D01*
X232716430Y-47379720D01*
X232912202Y-47134230D01*
X233134230Y-46912202D01*
X233379720Y-46716430D01*
X233645587Y-46549374D01*
X233928486Y-46413137D01*
X234224861Y-46309431D01*
X234530983Y-46239561D01*
X234843003Y-46204405D01*
X235156997Y-46204405D01*
X235469017Y-46239561D01*
G37*
G36*
X65155552Y-51158564D02*
G01*
X65192050Y-51182950D01*
X65216436Y-51219448D01*
X65225000Y-51262500D01*
X65225000Y-51637500D01*
X65216436Y-51680552D01*
X65192050Y-51717050D01*
X65155552Y-51741436D01*
X65112500Y-51750000D01*
X64887500Y-51750000D01*
X64844448Y-51741436D01*
X64807950Y-51717050D01*
X64783564Y-51680552D01*
X64775000Y-51637500D01*
X64775000Y-51262500D01*
X64783564Y-51219448D01*
X64807950Y-51182950D01*
X64844448Y-51158564D01*
X64887500Y-51150000D01*
X65112500Y-51150000D01*
X65155552Y-51158564D01*
G37*
G36*
X71256790Y-49430393D02*
G01*
X71420952Y-49483733D01*
X71574748Y-49562096D01*
X71714393Y-49663553D01*
X71836447Y-49785607D01*
X71937904Y-49925252D01*
X72016267Y-50079048D01*
X72069607Y-50243210D01*
X72096609Y-50413695D01*
X72096609Y-50586305D01*
X72069607Y-50756790D01*
X72016267Y-50920952D01*
X71937904Y-51074748D01*
X71836447Y-51214393D01*
X71714393Y-51336447D01*
X71574748Y-51437904D01*
X71420952Y-51516267D01*
X71256790Y-51569607D01*
X71086305Y-51596609D01*
X70913695Y-51596609D01*
X70743210Y-51569607D01*
X70579048Y-51516267D01*
X70425252Y-51437904D01*
X70285607Y-51336447D01*
X70163553Y-51214393D01*
X70062096Y-51074748D01*
X69983733Y-50920952D01*
X69930393Y-50756790D01*
X69903391Y-50586305D01*
X69903391Y-50413695D01*
X69930393Y-50243210D01*
X69983733Y-50079048D01*
X70062096Y-49925252D01*
X70163553Y-49785607D01*
X70285607Y-49663553D01*
X70425252Y-49562096D01*
X70579048Y-49483733D01*
X70743210Y-49430393D01*
X70913695Y-49403391D01*
X71086305Y-49403391D01*
X71256790Y-49430393D01*
G37*
G36*
X128256790Y-49430393D02*
G01*
X128420952Y-49483733D01*
X128574748Y-49562096D01*
X128714393Y-49663553D01*
X128836447Y-49785607D01*
X128937904Y-49925252D01*
X129016267Y-50079048D01*
X129069607Y-50243210D01*
X129096609Y-50413695D01*
X129096609Y-50586305D01*
X129069607Y-50756790D01*
X129016267Y-50920952D01*
X128937904Y-51074748D01*
X128836447Y-51214393D01*
X128714393Y-51336447D01*
X128574748Y-51437904D01*
X128420952Y-51516267D01*
X128256790Y-51569607D01*
X128086305Y-51596609D01*
X127913695Y-51596609D01*
X127743210Y-51569607D01*
X127579048Y-51516267D01*
X127425252Y-51437904D01*
X127285607Y-51336447D01*
X127163553Y-51214393D01*
X127062096Y-51074748D01*
X126983733Y-50920952D01*
X126930393Y-50756790D01*
X126903391Y-50586305D01*
X126903391Y-50413695D01*
X126930393Y-50243210D01*
X126983733Y-50079048D01*
X127062096Y-49925252D01*
X127163553Y-49785607D01*
X127285607Y-49663553D01*
X127425252Y-49562096D01*
X127579048Y-49483733D01*
X127743210Y-49430393D01*
X127913695Y-49403391D01*
X128086305Y-49403391D01*
X128256790Y-49430393D01*
G37*
G36*
X215621531Y-48103145D02*
G01*
X215839483Y-48161546D01*
X216047948Y-48247895D01*
X216243359Y-48360715D01*
X216422372Y-48498076D01*
X216581924Y-48657628D01*
X216719285Y-48836641D01*
X216832105Y-49032052D01*
X216918454Y-49240517D01*
X216976855Y-49458469D01*
X217006307Y-49682180D01*
X217006307Y-49907820D01*
X216976855Y-50131531D01*
X216918454Y-50349483D01*
X216832105Y-50557948D01*
X216719285Y-50753359D01*
X216581924Y-50932372D01*
X216422372Y-51091924D01*
X216243359Y-51229285D01*
X216047948Y-51342105D01*
X215839483Y-51428454D01*
X215621531Y-51486855D01*
X215397820Y-51516307D01*
X215172180Y-51516307D01*
X214948469Y-51486855D01*
X214730517Y-51428454D01*
X214522052Y-51342105D01*
X214326641Y-51229285D01*
X214147628Y-51091924D01*
X213988076Y-50932372D01*
X213850715Y-50753359D01*
X213737895Y-50557948D01*
X213651546Y-50349483D01*
X213593145Y-50131531D01*
X213563693Y-49907820D01*
X213563693Y-49682180D01*
X213593145Y-49458469D01*
X213651546Y-49240517D01*
X213737895Y-49032052D01*
X213850715Y-48836641D01*
X213988076Y-48657628D01*
X214147628Y-48498076D01*
X214326641Y-48360715D01*
X214522052Y-48247895D01*
X214730517Y-48161546D01*
X214948469Y-48103145D01*
X215172180Y-48073693D01*
X215397820Y-48073693D01*
X215621531Y-48103145D01*
G37*
G36*
X227051531Y-48103145D02*
G01*
X227269483Y-48161546D01*
X227477948Y-48247895D01*
X227673359Y-48360715D01*
X227852372Y-48498076D01*
X228011924Y-48657628D01*
X228149285Y-48836641D01*
X228262105Y-49032052D01*
X228348454Y-49240517D01*
X228406855Y-49458469D01*
X228436307Y-49682180D01*
X228436307Y-49907820D01*
X228406855Y-50131531D01*
X228348454Y-50349483D01*
X228262105Y-50557948D01*
X228149285Y-50753359D01*
X228011924Y-50932372D01*
X227852372Y-51091924D01*
X227673359Y-51229285D01*
X227477948Y-51342105D01*
X227269483Y-51428454D01*
X227051531Y-51486855D01*
X226827820Y-51516307D01*
X226602180Y-51516307D01*
X226378469Y-51486855D01*
X226160517Y-51428454D01*
X225952052Y-51342105D01*
X225756641Y-51229285D01*
X225577628Y-51091924D01*
X225418076Y-50932372D01*
X225280715Y-50753359D01*
X225167895Y-50557948D01*
X225081546Y-50349483D01*
X225023145Y-50131531D01*
X224993693Y-49907820D01*
X224993693Y-49682180D01*
X225023145Y-49458469D01*
X225081546Y-49240517D01*
X225167895Y-49032052D01*
X225280715Y-48836641D01*
X225418076Y-48657628D01*
X225577628Y-48498076D01*
X225756641Y-48360715D01*
X225952052Y-48247895D01*
X226160517Y-48161546D01*
X226378469Y-48103145D01*
X226602180Y-48073693D01*
X226827820Y-48073693D01*
X227051531Y-48103145D01*
G37*
G36*
X91135490Y-49763586D02*
G01*
X91291898Y-49828373D01*
X91432662Y-49922428D01*
X91552372Y-50042138D01*
X91646427Y-50182902D01*
X91711214Y-50339310D01*
X91744242Y-50505352D01*
X91744242Y-50674648D01*
X91711214Y-50840690D01*
X91646427Y-50997098D01*
X91552372Y-51137862D01*
X91432662Y-51257572D01*
X91291898Y-51351627D01*
X91135490Y-51416414D01*
X90969448Y-51449442D01*
X90800152Y-51449442D01*
X90634110Y-51416414D01*
X90477702Y-51351627D01*
X90336938Y-51257572D01*
X90217228Y-51137862D01*
X90123173Y-50997098D01*
X90058386Y-50840690D01*
X90025358Y-50674648D01*
X90025358Y-50505352D01*
X90058386Y-50339310D01*
X90123173Y-50182902D01*
X90217228Y-50042138D01*
X90336938Y-49922428D01*
X90477702Y-49828373D01*
X90634110Y-49763586D01*
X90800152Y-49730558D01*
X90969448Y-49730558D01*
X91135490Y-49763586D01*
G37*
G36*
X93675490Y-49763586D02*
G01*
X93831898Y-49828373D01*
X93972662Y-49922428D01*
X94092372Y-50042138D01*
X94186427Y-50182902D01*
X94251214Y-50339310D01*
X94284242Y-50505352D01*
X94284242Y-50674648D01*
X94251214Y-50840690D01*
X94186427Y-50997098D01*
X94092372Y-51137862D01*
X93972662Y-51257572D01*
X93831898Y-51351627D01*
X93675490Y-51416414D01*
X93509448Y-51449442D01*
X93340152Y-51449442D01*
X93174110Y-51416414D01*
X93017702Y-51351627D01*
X92876938Y-51257572D01*
X92757228Y-51137862D01*
X92663173Y-50997098D01*
X92598386Y-50840690D01*
X92565358Y-50674648D01*
X92565358Y-50505352D01*
X92598386Y-50339310D01*
X92663173Y-50182902D01*
X92757228Y-50042138D01*
X92876938Y-49922428D01*
X93017702Y-49828373D01*
X93174110Y-49763586D01*
X93340152Y-49730558D01*
X93509448Y-49730558D01*
X93675490Y-49763586D01*
G37*
G36*
X96215490Y-49763586D02*
G01*
X96371898Y-49828373D01*
X96512662Y-49922428D01*
X96632372Y-50042138D01*
X96726427Y-50182902D01*
X96791214Y-50339310D01*
X96824242Y-50505352D01*
X96824242Y-50674648D01*
X96791214Y-50840690D01*
X96726427Y-50997098D01*
X96632372Y-51137862D01*
X96512662Y-51257572D01*
X96371898Y-51351627D01*
X96215490Y-51416414D01*
X96049448Y-51449442D01*
X95880152Y-51449442D01*
X95714110Y-51416414D01*
X95557702Y-51351627D01*
X95416938Y-51257572D01*
X95297228Y-51137862D01*
X95203173Y-50997098D01*
X95138386Y-50840690D01*
X95105358Y-50674648D01*
X95105358Y-50505352D01*
X95138386Y-50339310D01*
X95203173Y-50182902D01*
X95297228Y-50042138D01*
X95416938Y-49922428D01*
X95557702Y-49828373D01*
X95714110Y-49763586D01*
X95880152Y-49730558D01*
X96049448Y-49730558D01*
X96215490Y-49763586D01*
G37*
G36*
X98755490Y-49763586D02*
G01*
X98911898Y-49828373D01*
X99052662Y-49922428D01*
X99172372Y-50042138D01*
X99266427Y-50182902D01*
X99331214Y-50339310D01*
X99364242Y-50505352D01*
X99364242Y-50674648D01*
X99331214Y-50840690D01*
X99266427Y-50997098D01*
X99172372Y-51137862D01*
X99052662Y-51257572D01*
X98911898Y-51351627D01*
X98755490Y-51416414D01*
X98589448Y-51449442D01*
X98420152Y-51449442D01*
X98254110Y-51416414D01*
X98097702Y-51351627D01*
X97956938Y-51257572D01*
X97837228Y-51137862D01*
X97743173Y-50997098D01*
X97678386Y-50840690D01*
X97645358Y-50674648D01*
X97645358Y-50505352D01*
X97678386Y-50339310D01*
X97743173Y-50182902D01*
X97837228Y-50042138D01*
X97956938Y-49922428D01*
X98097702Y-49828373D01*
X98254110Y-49763586D01*
X98420152Y-49730558D01*
X98589448Y-49730558D01*
X98755490Y-49763586D01*
G37*
G36*
X101295490Y-49763586D02*
G01*
X101451898Y-49828373D01*
X101592662Y-49922428D01*
X101712372Y-50042138D01*
X101806427Y-50182902D01*
X101871214Y-50339310D01*
X101904242Y-50505352D01*
X101904242Y-50674648D01*
X101871214Y-50840690D01*
X101806427Y-50997098D01*
X101712372Y-51137862D01*
X101592662Y-51257572D01*
X101451898Y-51351627D01*
X101295490Y-51416414D01*
X101129448Y-51449442D01*
X100960152Y-51449442D01*
X100794110Y-51416414D01*
X100637702Y-51351627D01*
X100496938Y-51257572D01*
X100377228Y-51137862D01*
X100283173Y-50997098D01*
X100218386Y-50840690D01*
X100185358Y-50674648D01*
X100185358Y-50505352D01*
X100218386Y-50339310D01*
X100283173Y-50182902D01*
X100377228Y-50042138D01*
X100496938Y-49922428D01*
X100637702Y-49828373D01*
X100794110Y-49763586D01*
X100960152Y-49730558D01*
X101129448Y-49730558D01*
X101295490Y-49763586D01*
G37*
G36*
X103835490Y-49763586D02*
G01*
X103991898Y-49828373D01*
X104132662Y-49922428D01*
X104252372Y-50042138D01*
X104346427Y-50182902D01*
X104411214Y-50339310D01*
X104444242Y-50505352D01*
X104444242Y-50674648D01*
X104411214Y-50840690D01*
X104346427Y-50997098D01*
X104252372Y-51137862D01*
X104132662Y-51257572D01*
X103991898Y-51351627D01*
X103835490Y-51416414D01*
X103669448Y-51449442D01*
X103500152Y-51449442D01*
X103334110Y-51416414D01*
X103177702Y-51351627D01*
X103036938Y-51257572D01*
X102917228Y-51137862D01*
X102823173Y-50997098D01*
X102758386Y-50840690D01*
X102725358Y-50674648D01*
X102725358Y-50505352D01*
X102758386Y-50339310D01*
X102823173Y-50182902D01*
X102917228Y-50042138D01*
X103036938Y-49922428D01*
X103177702Y-49828373D01*
X103334110Y-49763586D01*
X103500152Y-49730558D01*
X103669448Y-49730558D01*
X103835490Y-49763586D01*
G37*
G36*
X106375490Y-49763586D02*
G01*
X106531898Y-49828373D01*
X106672662Y-49922428D01*
X106792372Y-50042138D01*
X106886427Y-50182902D01*
X106951214Y-50339310D01*
X106984242Y-50505352D01*
X106984242Y-50674648D01*
X106951214Y-50840690D01*
X106886427Y-50997098D01*
X106792372Y-51137862D01*
X106672662Y-51257572D01*
X106531898Y-51351627D01*
X106375490Y-51416414D01*
X106209448Y-51449442D01*
X106040152Y-51449442D01*
X105874110Y-51416414D01*
X105717702Y-51351627D01*
X105576938Y-51257572D01*
X105457228Y-51137862D01*
X105363173Y-50997098D01*
X105298386Y-50840690D01*
X105265358Y-50674648D01*
X105265358Y-50505352D01*
X105298386Y-50339310D01*
X105363173Y-50182902D01*
X105457228Y-50042138D01*
X105576938Y-49922428D01*
X105717702Y-49828373D01*
X105874110Y-49763586D01*
X106040152Y-49730558D01*
X106209448Y-49730558D01*
X106375490Y-49763586D01*
G37*
G36*
X108915490Y-49763586D02*
G01*
X109071898Y-49828373D01*
X109212662Y-49922428D01*
X109332372Y-50042138D01*
X109426427Y-50182902D01*
X109491214Y-50339310D01*
X109524242Y-50505352D01*
X109524242Y-50674648D01*
X109491214Y-50840690D01*
X109426427Y-50997098D01*
X109332372Y-51137862D01*
X109212662Y-51257572D01*
X109071898Y-51351627D01*
X108915490Y-51416414D01*
X108749448Y-51449442D01*
X108580152Y-51449442D01*
X108414110Y-51416414D01*
X108257702Y-51351627D01*
X108116938Y-51257572D01*
X107997228Y-51137862D01*
X107903173Y-50997098D01*
X107838386Y-50840690D01*
X107805358Y-50674648D01*
X107805358Y-50505352D01*
X107838386Y-50339310D01*
X107903173Y-50182902D01*
X107997228Y-50042138D01*
X108116938Y-49922428D01*
X108257702Y-49828373D01*
X108414110Y-49763586D01*
X108580152Y-49730558D01*
X108749448Y-49730558D01*
X108915490Y-49763586D01*
G37*
G36*
X111455490Y-49763586D02*
G01*
X111611898Y-49828373D01*
X111752662Y-49922428D01*
X111872372Y-50042138D01*
X111966427Y-50182902D01*
X112031214Y-50339310D01*
X112064242Y-50505352D01*
X112064242Y-50674648D01*
X112031214Y-50840690D01*
X111966427Y-50997098D01*
X111872372Y-51137862D01*
X111752662Y-51257572D01*
X111611898Y-51351627D01*
X111455490Y-51416414D01*
X111289448Y-51449442D01*
X111120152Y-51449442D01*
X110954110Y-51416414D01*
X110797702Y-51351627D01*
X110656938Y-51257572D01*
X110537228Y-51137862D01*
X110443173Y-50997098D01*
X110378386Y-50840690D01*
X110345358Y-50674648D01*
X110345358Y-50505352D01*
X110378386Y-50339310D01*
X110443173Y-50182902D01*
X110537228Y-50042138D01*
X110656938Y-49922428D01*
X110797702Y-49828373D01*
X110954110Y-49763586D01*
X111120152Y-49730558D01*
X111289448Y-49730558D01*
X111455490Y-49763586D01*
G37*
G36*
X113995490Y-49763586D02*
G01*
X114151898Y-49828373D01*
X114292662Y-49922428D01*
X114412372Y-50042138D01*
X114506427Y-50182902D01*
X114571214Y-50339310D01*
X114604242Y-50505352D01*
X114604242Y-50674648D01*
X114571214Y-50840690D01*
X114506427Y-50997098D01*
X114412372Y-51137862D01*
X114292662Y-51257572D01*
X114151898Y-51351627D01*
X113995490Y-51416414D01*
X113829448Y-51449442D01*
X113660152Y-51449442D01*
X113494110Y-51416414D01*
X113337702Y-51351627D01*
X113196938Y-51257572D01*
X113077228Y-51137862D01*
X112983173Y-50997098D01*
X112918386Y-50840690D01*
X112885358Y-50674648D01*
X112885358Y-50505352D01*
X112918386Y-50339310D01*
X112983173Y-50182902D01*
X113077228Y-50042138D01*
X113196938Y-49922428D01*
X113337702Y-49828373D01*
X113494110Y-49763586D01*
X113660152Y-49730558D01*
X113829448Y-49730558D01*
X113995490Y-49763586D01*
G37*
G36*
X116535490Y-49763586D02*
G01*
X116691898Y-49828373D01*
X116832662Y-49922428D01*
X116952372Y-50042138D01*
X117046427Y-50182902D01*
X117111214Y-50339310D01*
X117144242Y-50505352D01*
X117144242Y-50674648D01*
X117111214Y-50840690D01*
X117046427Y-50997098D01*
X116952372Y-51137862D01*
X116832662Y-51257572D01*
X116691898Y-51351627D01*
X116535490Y-51416414D01*
X116369448Y-51449442D01*
X116200152Y-51449442D01*
X116034110Y-51416414D01*
X115877702Y-51351627D01*
X115736938Y-51257572D01*
X115617228Y-51137862D01*
X115523173Y-50997098D01*
X115458386Y-50840690D01*
X115425358Y-50674648D01*
X115425358Y-50505352D01*
X115458386Y-50339310D01*
X115523173Y-50182902D01*
X115617228Y-50042138D01*
X115736938Y-49922428D01*
X115877702Y-49828373D01*
X116034110Y-49763586D01*
X116200152Y-49730558D01*
X116369448Y-49730558D01*
X116535490Y-49763586D01*
G37*
G36*
X119075490Y-49763586D02*
G01*
X119231898Y-49828373D01*
X119372662Y-49922428D01*
X119492372Y-50042138D01*
X119586427Y-50182902D01*
X119651214Y-50339310D01*
X119684242Y-50505352D01*
X119684242Y-50674648D01*
X119651214Y-50840690D01*
X119586427Y-50997098D01*
X119492372Y-51137862D01*
X119372662Y-51257572D01*
X119231898Y-51351627D01*
X119075490Y-51416414D01*
X118909448Y-51449442D01*
X118740152Y-51449442D01*
X118574110Y-51416414D01*
X118417702Y-51351627D01*
X118276938Y-51257572D01*
X118157228Y-51137862D01*
X118063173Y-50997098D01*
X117998386Y-50840690D01*
X117965358Y-50674648D01*
X117965358Y-50505352D01*
X117998386Y-50339310D01*
X118063173Y-50182902D01*
X118157228Y-50042138D01*
X118276938Y-49922428D01*
X118417702Y-49828373D01*
X118574110Y-49763586D01*
X118740152Y-49730558D01*
X118909448Y-49730558D01*
X119075490Y-49763586D01*
G37*
G36*
X121615490Y-49763586D02*
G01*
X121771898Y-49828373D01*
X121912662Y-49922428D01*
X122032372Y-50042138D01*
X122126427Y-50182902D01*
X122191214Y-50339310D01*
X122224242Y-50505352D01*
X122224242Y-50674648D01*
X122191214Y-50840690D01*
X122126427Y-50997098D01*
X122032372Y-51137862D01*
X121912662Y-51257572D01*
X121771898Y-51351627D01*
X121615490Y-51416414D01*
X121449448Y-51449442D01*
X121280152Y-51449442D01*
X121114110Y-51416414D01*
X120957702Y-51351627D01*
X120816938Y-51257572D01*
X120697228Y-51137862D01*
X120603173Y-50997098D01*
X120538386Y-50840690D01*
X120505358Y-50674648D01*
X120505358Y-50505352D01*
X120538386Y-50339310D01*
X120603173Y-50182902D01*
X120697228Y-50042138D01*
X120816938Y-49922428D01*
X120957702Y-49828373D01*
X121114110Y-49763586D01*
X121280152Y-49730558D01*
X121449448Y-49730558D01*
X121615490Y-49763586D01*
G37*
G36*
X124155490Y-49763586D02*
G01*
X124311898Y-49828373D01*
X124452662Y-49922428D01*
X124572372Y-50042138D01*
X124666427Y-50182902D01*
X124731214Y-50339310D01*
X124764242Y-50505352D01*
X124764242Y-50674648D01*
X124731214Y-50840690D01*
X124666427Y-50997098D01*
X124572372Y-51137862D01*
X124452662Y-51257572D01*
X124311898Y-51351627D01*
X124155490Y-51416414D01*
X123989448Y-51449442D01*
X123820152Y-51449442D01*
X123654110Y-51416414D01*
X123497702Y-51351627D01*
X123356938Y-51257572D01*
X123237228Y-51137862D01*
X123143173Y-50997098D01*
X123078386Y-50840690D01*
X123045358Y-50674648D01*
X123045358Y-50505352D01*
X123078386Y-50339310D01*
X123143173Y-50182902D01*
X123237228Y-50042138D01*
X123356938Y-49922428D01*
X123497702Y-49828373D01*
X123654110Y-49763586D01*
X123820152Y-49730558D01*
X123989448Y-49730558D01*
X124155490Y-49763586D01*
G37*
G36*
X55550000Y-51200000D02*
G01*
X55050000Y-51200000D01*
X55050000Y-49800000D01*
X55550000Y-49800000D01*
X55550000Y-51200000D01*
G37*
G36*
X56350000Y-51200000D02*
G01*
X55850000Y-51200000D01*
X55850000Y-49800000D01*
X56350000Y-49800000D01*
X56350000Y-51200000D01*
G37*
G36*
X56900000Y-51200000D02*
G01*
X56600000Y-51200000D01*
X56600000Y-49800000D01*
X56900000Y-49800000D01*
X56900000Y-51200000D01*
G37*
G36*
X57400000Y-51200000D02*
G01*
X57100000Y-51200000D01*
X57100000Y-49800000D01*
X57400000Y-49800000D01*
X57400000Y-51200000D01*
G37*
G36*
X57900000Y-51200000D02*
G01*
X57600000Y-51200000D01*
X57600000Y-49800000D01*
X57900000Y-49800000D01*
X57900000Y-51200000D01*
G37*
G36*
X58400000Y-51200000D02*
G01*
X58100000Y-51200000D01*
X58100000Y-49800000D01*
X58400000Y-49800000D01*
X58400000Y-51200000D01*
G37*
G36*
X58900000Y-51200000D02*
G01*
X58600000Y-51200000D01*
X58600000Y-49800000D01*
X58900000Y-49800000D01*
X58900000Y-51200000D01*
G37*
G36*
X59400000Y-51200000D02*
G01*
X59100000Y-51200000D01*
X59100000Y-49800000D01*
X59400000Y-49800000D01*
X59400000Y-51200000D01*
G37*
G36*
X59900000Y-51200000D02*
G01*
X59600000Y-51200000D01*
X59600000Y-49800000D01*
X59900000Y-49800000D01*
X59900000Y-51200000D01*
G37*
G36*
X60400000Y-51200000D02*
G01*
X60100000Y-51200000D01*
X60100000Y-49800000D01*
X60400000Y-49800000D01*
X60400000Y-51200000D01*
G37*
G36*
X61150000Y-51200000D02*
G01*
X60650000Y-51200000D01*
X60650000Y-49800000D01*
X61150000Y-49800000D01*
X61150000Y-51200000D01*
G37*
G36*
X61950000Y-51200000D02*
G01*
X61450000Y-51200000D01*
X61450000Y-49800000D01*
X61950000Y-49800000D01*
X61950000Y-51200000D01*
G37*
G36*
X54358685Y-48697989D02*
G01*
X54476408Y-48746751D01*
X54582356Y-48817543D01*
X54672457Y-48907644D01*
X54743249Y-49013592D01*
X54792011Y-49131315D01*
X54816870Y-49256289D01*
X54820000Y-49320000D01*
X54820000Y-50320000D01*
X54816870Y-50383711D01*
X54792011Y-50508685D01*
X54743249Y-50626408D01*
X54672457Y-50732356D01*
X54582356Y-50822457D01*
X54476408Y-50893249D01*
X54358685Y-50942011D01*
X54233711Y-50966870D01*
X54106289Y-50966870D01*
X53981315Y-50942011D01*
X53863592Y-50893249D01*
X53757644Y-50822457D01*
X53667543Y-50732356D01*
X53596751Y-50626408D01*
X53547989Y-50508685D01*
X53523130Y-50383711D01*
X53520000Y-50320000D01*
X53520000Y-49320000D01*
X53523130Y-49256289D01*
X53547989Y-49131315D01*
X53596751Y-49013592D01*
X53667543Y-48907644D01*
X53757644Y-48817543D01*
X53863592Y-48746751D01*
X53981315Y-48697989D01*
X54106289Y-48673130D01*
X54233711Y-48673130D01*
X54358685Y-48697989D01*
G37*
G36*
X63018685Y-48697989D02*
G01*
X63136408Y-48746751D01*
X63242356Y-48817543D01*
X63332457Y-48907644D01*
X63403249Y-49013592D01*
X63452011Y-49131315D01*
X63476870Y-49256289D01*
X63480000Y-49320000D01*
X63480000Y-50320000D01*
X63476870Y-50383711D01*
X63452011Y-50508685D01*
X63403249Y-50626408D01*
X63332457Y-50732356D01*
X63242356Y-50822457D01*
X63136408Y-50893249D01*
X63018685Y-50942011D01*
X62893711Y-50966870D01*
X62766289Y-50966870D01*
X62641315Y-50942011D01*
X62523592Y-50893249D01*
X62417644Y-50822457D01*
X62327543Y-50732356D01*
X62256751Y-50626408D01*
X62207989Y-50508685D01*
X62183130Y-50383711D01*
X62180000Y-50320000D01*
X62180000Y-49320000D01*
X62183130Y-49256289D01*
X62207989Y-49131315D01*
X62256751Y-49013592D01*
X62327543Y-48907644D01*
X62417644Y-48817543D01*
X62523592Y-48746751D01*
X62641315Y-48697989D01*
X62766289Y-48673130D01*
X62893711Y-48673130D01*
X63018685Y-48697989D01*
G37*
G36*
X55724805Y-49022836D02*
G01*
X55792628Y-49061994D01*
X55848006Y-49117372D01*
X55887164Y-49185195D01*
X55907433Y-49260842D01*
X55907433Y-49339158D01*
X55887164Y-49414805D01*
X55848006Y-49482628D01*
X55792628Y-49538006D01*
X55724805Y-49577164D01*
X55649158Y-49597433D01*
X55570842Y-49597433D01*
X55495195Y-49577164D01*
X55427372Y-49538006D01*
X55371994Y-49482628D01*
X55332836Y-49414805D01*
X55312567Y-49339158D01*
X55312567Y-49260842D01*
X55332836Y-49185195D01*
X55371994Y-49117372D01*
X55427372Y-49061994D01*
X55495195Y-49022836D01*
X55570842Y-49002567D01*
X55649158Y-49002567D01*
X55724805Y-49022836D01*
G37*
G36*
X61504805Y-49022836D02*
G01*
X61572628Y-49061994D01*
X61628006Y-49117372D01*
X61667164Y-49185195D01*
X61687433Y-49260842D01*
X61687433Y-49339158D01*
X61667164Y-49414805D01*
X61628006Y-49482628D01*
X61572628Y-49538006D01*
X61504805Y-49577164D01*
X61429158Y-49597433D01*
X61350842Y-49597433D01*
X61275195Y-49577164D01*
X61207372Y-49538006D01*
X61151994Y-49482628D01*
X61112836Y-49414805D01*
X61092567Y-49339158D01*
X61092567Y-49260842D01*
X61112836Y-49185195D01*
X61151994Y-49117372D01*
X61207372Y-49061994D01*
X61275195Y-49022836D01*
X61350842Y-49002567D01*
X61429158Y-49002567D01*
X61504805Y-49022836D01*
G37*
G36*
X213803693Y-45500853D02*
G01*
X213994643Y-45562896D01*
X214173537Y-45654047D01*
X214335969Y-45772061D01*
X214477939Y-45914031D01*
X214595953Y-46076463D01*
X214687104Y-46255357D01*
X214749147Y-46446307D01*
X214780556Y-46644612D01*
X214780556Y-46845388D01*
X214749147Y-47043693D01*
X214687104Y-47234643D01*
X214595953Y-47413537D01*
X214477939Y-47575969D01*
X214335969Y-47717939D01*
X214173537Y-47835953D01*
X213994643Y-47927104D01*
X213803693Y-47989147D01*
X213605388Y-48020556D01*
X213404612Y-48020556D01*
X213206307Y-47989147D01*
X213015357Y-47927104D01*
X212836463Y-47835953D01*
X212674031Y-47717939D01*
X212532061Y-47575969D01*
X212414047Y-47413537D01*
X212322896Y-47234643D01*
X212260853Y-47043693D01*
X212229444Y-46845388D01*
X212229444Y-46644612D01*
X212260853Y-46446307D01*
X212322896Y-46255357D01*
X212414047Y-46076463D01*
X212532061Y-45914031D01*
X212674031Y-45772061D01*
X212836463Y-45654047D01*
X213015357Y-45562896D01*
X213206307Y-45500853D01*
X213404612Y-45469444D01*
X213605388Y-45469444D01*
X213803693Y-45500853D01*
G37*
G36*
X228793693Y-45500853D02*
G01*
X228984643Y-45562896D01*
X229163537Y-45654047D01*
X229325969Y-45772061D01*
X229467939Y-45914031D01*
X229585953Y-46076463D01*
X229677104Y-46255357D01*
X229739147Y-46446307D01*
X229770556Y-46644612D01*
X229770556Y-46845388D01*
X229739147Y-47043693D01*
X229677104Y-47234643D01*
X229585953Y-47413537D01*
X229467939Y-47575969D01*
X229325969Y-47717939D01*
X229163537Y-47835953D01*
X228984643Y-47927104D01*
X228793693Y-47989147D01*
X228595388Y-48020556D01*
X228394612Y-48020556D01*
X228196307Y-47989147D01*
X228005357Y-47927104D01*
X227826463Y-47835953D01*
X227664031Y-47717939D01*
X227522061Y-47575969D01*
X227404047Y-47413537D01*
X227312896Y-47234643D01*
X227250853Y-47043693D01*
X227219444Y-46845388D01*
X227219444Y-46644612D01*
X227250853Y-46446307D01*
X227312896Y-46255357D01*
X227404047Y-46076463D01*
X227522061Y-45914031D01*
X227664031Y-45772061D01*
X227826463Y-45654047D01*
X228005357Y-45562896D01*
X228196307Y-45500853D01*
X228394612Y-45469444D01*
X228595388Y-45469444D01*
X228793693Y-45500853D01*
G37*
G36*
X60606283Y-44511427D02*
G01*
X60613268Y-44514032D01*
X60617762Y-44514572D01*
X60670931Y-44535539D01*
X60739624Y-44561161D01*
X60743768Y-44564263D01*
X60744776Y-44564661D01*
X60781416Y-44592446D01*
X60853553Y-44646447D01*
X60907572Y-44718608D01*
X60935338Y-44755223D01*
X60935734Y-44756229D01*
X60938839Y-44760376D01*
X60964470Y-44829096D01*
X60985427Y-44882237D01*
X60985966Y-44886728D01*
X60988573Y-44893717D01*
X61000000Y-45000000D01*
X61000000Y-47000000D01*
X60988573Y-47106283D01*
X60985966Y-47113272D01*
X60985427Y-47117762D01*
X60964477Y-47170884D01*
X60938839Y-47239624D01*
X60935734Y-47243771D01*
X60935338Y-47244776D01*
X60907630Y-47281313D01*
X60853553Y-47353553D01*
X60781313Y-47407630D01*
X60744776Y-47435338D01*
X60743771Y-47435734D01*
X60739624Y-47438839D01*
X60670884Y-47464477D01*
X60617762Y-47485427D01*
X60613272Y-47485966D01*
X60606283Y-47488573D01*
X60500000Y-47500000D01*
X56500000Y-47500000D01*
X56393717Y-47488573D01*
X56386728Y-47485966D01*
X56382237Y-47485427D01*
X56329096Y-47464470D01*
X56260376Y-47438839D01*
X56256229Y-47435734D01*
X56255223Y-47435338D01*
X56218608Y-47407572D01*
X56146447Y-47353553D01*
X56092446Y-47281416D01*
X56064661Y-47244776D01*
X56064263Y-47243768D01*
X56061161Y-47239624D01*
X56035539Y-47170931D01*
X56014572Y-47117762D01*
X56014032Y-47113268D01*
X56011427Y-47106283D01*
X56000000Y-47000000D01*
X56000000Y-45000000D01*
X56011427Y-44893717D01*
X56014032Y-44886732D01*
X56014572Y-44882237D01*
X56035546Y-44829049D01*
X56061161Y-44760376D01*
X56064263Y-44756232D01*
X56064661Y-44755223D01*
X56092504Y-44718506D01*
X56146447Y-44646447D01*
X56218506Y-44592504D01*
X56255223Y-44564661D01*
X56256232Y-44564263D01*
X56260376Y-44561161D01*
X56329049Y-44535546D01*
X56382237Y-44514572D01*
X56386732Y-44514032D01*
X56393717Y-44511427D01*
X56500000Y-44500000D01*
X60500000Y-44500000D01*
X60606283Y-44511427D01*
G37*
G36*
X103852810Y-45390667D02*
G01*
X104023019Y-45461170D01*
X104176203Y-45563525D01*
X104306475Y-45693797D01*
X104408830Y-45846981D01*
X104479333Y-46017190D01*
X104515275Y-46197883D01*
X104515275Y-46382117D01*
X104479333Y-46562810D01*
X104408830Y-46733019D01*
X104306475Y-46886203D01*
X104176203Y-47016475D01*
X104023019Y-47118830D01*
X103852810Y-47189333D01*
X103672117Y-47225275D01*
X103487883Y-47225275D01*
X103307190Y-47189333D01*
X103136981Y-47118830D01*
X102983797Y-47016475D01*
X102853525Y-46886203D01*
X102751170Y-46733019D01*
X102680667Y-46562810D01*
X102644725Y-46382117D01*
X102644725Y-46197883D01*
X102680667Y-46017190D01*
X102751170Y-45846981D01*
X102853525Y-45693797D01*
X102983797Y-45563525D01*
X103136981Y-45461170D01*
X103307190Y-45390667D01*
X103487883Y-45354725D01*
X103672117Y-45354725D01*
X103852810Y-45390667D01*
G37*
G36*
X106392810Y-45390667D02*
G01*
X106563019Y-45461170D01*
X106716203Y-45563525D01*
X106846475Y-45693797D01*
X106948830Y-45846981D01*
X107019333Y-46017190D01*
X107055275Y-46197883D01*
X107055275Y-46382117D01*
X107019333Y-46562810D01*
X106948830Y-46733019D01*
X106846475Y-46886203D01*
X106716203Y-47016475D01*
X106563019Y-47118830D01*
X106392810Y-47189333D01*
X106212117Y-47225275D01*
X106027883Y-47225275D01*
X105847190Y-47189333D01*
X105676981Y-47118830D01*
X105523797Y-47016475D01*
X105393525Y-46886203D01*
X105291170Y-46733019D01*
X105220667Y-46562810D01*
X105184725Y-46382117D01*
X105184725Y-46197883D01*
X105220667Y-46017190D01*
X105291170Y-45846981D01*
X105393525Y-45693797D01*
X105523797Y-45563525D01*
X105676981Y-45461170D01*
X105847190Y-45390667D01*
X106027883Y-45354725D01*
X106212117Y-45354725D01*
X106392810Y-45390667D01*
G37*
G36*
X108932810Y-45390667D02*
G01*
X109103019Y-45461170D01*
X109256203Y-45563525D01*
X109386475Y-45693797D01*
X109488830Y-45846981D01*
X109559333Y-46017190D01*
X109595275Y-46197883D01*
X109595275Y-46382117D01*
X109559333Y-46562810D01*
X109488830Y-46733019D01*
X109386475Y-46886203D01*
X109256203Y-47016475D01*
X109103019Y-47118830D01*
X108932810Y-47189333D01*
X108752117Y-47225275D01*
X108567883Y-47225275D01*
X108387190Y-47189333D01*
X108216981Y-47118830D01*
X108063797Y-47016475D01*
X107933525Y-46886203D01*
X107831170Y-46733019D01*
X107760667Y-46562810D01*
X107724725Y-46382117D01*
X107724725Y-46197883D01*
X107760667Y-46017190D01*
X107831170Y-45846981D01*
X107933525Y-45693797D01*
X108063797Y-45563525D01*
X108216981Y-45461170D01*
X108387190Y-45390667D01*
X108567883Y-45354725D01*
X108752117Y-45354725D01*
X108932810Y-45390667D01*
G37*
G36*
X111472810Y-45390667D02*
G01*
X111643019Y-45461170D01*
X111796203Y-45563525D01*
X111926475Y-45693797D01*
X112028830Y-45846981D01*
X112099333Y-46017190D01*
X112135275Y-46197883D01*
X112135275Y-46382117D01*
X112099333Y-46562810D01*
X112028830Y-46733019D01*
X111926475Y-46886203D01*
X111796203Y-47016475D01*
X111643019Y-47118830D01*
X111472810Y-47189333D01*
X111292117Y-47225275D01*
X111107883Y-47225275D01*
X110927190Y-47189333D01*
X110756981Y-47118830D01*
X110603797Y-47016475D01*
X110473525Y-46886203D01*
X110371170Y-46733019D01*
X110300667Y-46562810D01*
X110264725Y-46382117D01*
X110264725Y-46197883D01*
X110300667Y-46017190D01*
X110371170Y-45846981D01*
X110473525Y-45693797D01*
X110603797Y-45563525D01*
X110756981Y-45461170D01*
X110927190Y-45390667D01*
X111107883Y-45354725D01*
X111292117Y-45354725D01*
X111472810Y-45390667D01*
G37*
G36*
X114012810Y-45390667D02*
G01*
X114183019Y-45461170D01*
X114336203Y-45563525D01*
X114466475Y-45693797D01*
X114568830Y-45846981D01*
X114639333Y-46017190D01*
X114675275Y-46197883D01*
X114675275Y-46382117D01*
X114639333Y-46562810D01*
X114568830Y-46733019D01*
X114466475Y-46886203D01*
X114336203Y-47016475D01*
X114183019Y-47118830D01*
X114012810Y-47189333D01*
X113832117Y-47225275D01*
X113647883Y-47225275D01*
X113467190Y-47189333D01*
X113296981Y-47118830D01*
X113143797Y-47016475D01*
X113013525Y-46886203D01*
X112911170Y-46733019D01*
X112840667Y-46562810D01*
X112804725Y-46382117D01*
X112804725Y-46197883D01*
X112840667Y-46017190D01*
X112911170Y-45846981D01*
X113013525Y-45693797D01*
X113143797Y-45563525D01*
X113296981Y-45461170D01*
X113467190Y-45390667D01*
X113647883Y-45354725D01*
X113832117Y-45354725D01*
X114012810Y-45390667D01*
G37*
G36*
X54358685Y-44597989D02*
G01*
X54476408Y-44646751D01*
X54582356Y-44717543D01*
X54672457Y-44807644D01*
X54743249Y-44913592D01*
X54792011Y-45031315D01*
X54816870Y-45156289D01*
X54820000Y-45220000D01*
X54820000Y-46020000D01*
X54816870Y-46083711D01*
X54792011Y-46208685D01*
X54743249Y-46326408D01*
X54672457Y-46432356D01*
X54582356Y-46522457D01*
X54476408Y-46593249D01*
X54358685Y-46642011D01*
X54233711Y-46666870D01*
X54106289Y-46666870D01*
X53981315Y-46642011D01*
X53863592Y-46593249D01*
X53757644Y-46522457D01*
X53667543Y-46432356D01*
X53596751Y-46326408D01*
X53547989Y-46208685D01*
X53523130Y-46083711D01*
X53520000Y-46020000D01*
X53520000Y-45220000D01*
X53523130Y-45156289D01*
X53547989Y-45031315D01*
X53596751Y-44913592D01*
X53667543Y-44807644D01*
X53757644Y-44717543D01*
X53863592Y-44646751D01*
X53981315Y-44597989D01*
X54106289Y-44573130D01*
X54233711Y-44573130D01*
X54358685Y-44597989D01*
G37*
G36*
X63018685Y-44597989D02*
G01*
X63136408Y-44646751D01*
X63242356Y-44717543D01*
X63332457Y-44807644D01*
X63403249Y-44913592D01*
X63452011Y-45031315D01*
X63476870Y-45156289D01*
X63480000Y-45220000D01*
X63480000Y-46020000D01*
X63476870Y-46083711D01*
X63452011Y-46208685D01*
X63403249Y-46326408D01*
X63332457Y-46432356D01*
X63242356Y-46522457D01*
X63136408Y-46593249D01*
X63018685Y-46642011D01*
X62893711Y-46666870D01*
X62766289Y-46666870D01*
X62641315Y-46642011D01*
X62523592Y-46593249D01*
X62417644Y-46522457D01*
X62327543Y-46432356D01*
X62256751Y-46326408D01*
X62207989Y-46208685D01*
X62183130Y-46083711D01*
X62180000Y-46020000D01*
X62180000Y-45220000D01*
X62183130Y-45156289D01*
X62207989Y-45031315D01*
X62256751Y-44913592D01*
X62327543Y-44807644D01*
X62417644Y-44717543D01*
X62523592Y-44646751D01*
X62641315Y-44597989D01*
X62766289Y-44573130D01*
X62893711Y-44573130D01*
X63018685Y-44597989D01*
G37*
M02*
