M48
; DRILL file {KiCad 9.0.3} date 2025-09-25T17:41:31+0200
; FORMAT={-:-/ absolute / inch / decimal}
; #@! TF.CreationDate,2025-09-25T17:41:31+02:00
; #@! TF.GenerationSoftware,Kicad,Pcbnew,9.0.3
; #@! TF.FileFunction,Plated,1,2,PTH
FMAT,2
INCH
; #@! TA.AperFunction,Plated,PTH,ViaDrill
T1C0.0118
; #@! TA.AperFunction,Plated,PTH,ComponentDrill
T2C0.0118
; #@! TA.AperFunction,Plated,PTH,ViaDrill
T3C0.0157
; #@! TA.AperFunction,Plated,PTH,ComponentDrill
T4C0.0197
; #@! TA.AperFunction,Plated,PTH,ComponentDrill
T5C0.0350
; #@! TA.AperFunction,Plated,PTH,ComponentDrill
T6C0.0400
; #@! TA.AperFunction,Plated,PTH,ComponentDrill
T7C0.0618
; #@! TA.AperFunction,Plated,PTH,ComponentDrill
T8C0.1260
%
G90
G05
T1
X1.8406Y-2.9626
X1.9291Y-2.4803
X2.0472Y-2.6086
X2.1457Y-3.5039
X2.1555Y-4.3799
X2.1555Y-5.2461
X2.1555Y-6.1122
X2.1555Y-6.9783
X2.1555Y-7.8445
X2.1752Y-2.0669
X2.2047Y-2.4606
X2.313Y-2.5591
X2.372Y-2.4213
X2.372Y-2.6772
X2.4213Y-3.376
X2.4311Y-5.9744
X2.4606Y-4.6654
X2.4902Y-4.2913
X2.5394Y-4.3799
X2.5394Y-5.0591
X2.5394Y-5.2461
X2.5394Y-5.8465
X2.5394Y-6.1122
X2.5394Y-6.9783
X2.5394Y-7.8445
X2.5394Y-8.5236
X2.5492Y-3.248
X2.5492Y-4.1142
X2.5492Y-4.9803
X2.5787Y-2.3819
X2.628Y-2.1063
X3.0315Y-2.7756
X3.2382Y-2.4213
X3.2776Y-4.1535
X3.2776Y-5.8858
X3.2874Y-5.0492
X3.2874Y-7.6181
X3.4055Y-5.0591
X3.4055Y-5.8465
X3.4055Y-8.5236
X3.4154Y-4.1142
X3.4154Y-4.9803
X3.4252Y-2.3819
X3.937Y-2.7264
X4.0453Y-4.9213
X4.1437Y-2.4213
X4.1437Y-4.1437
X4.1437Y-5.8858
X4.1437Y-7.6181
X4.1535Y-6.7815
X4.2717Y-4.9803
X4.2717Y-5.0591
X4.2717Y-8.5236
X4.2815Y-4.1142
X4.2815Y-5.8465
X4.2913Y-2.3819
X4.4685Y-6.5059
X4.5079Y-6.6634
X4.6063Y-1.8701
X4.8031Y-8.3858
X4.8819Y-3.1791
X5.0098Y-4.1535
X5.0098Y-5.8858
X5.0098Y-7.6181
X5.0197Y-2.4213
X5.1378Y-4.1142
X5.1378Y-5.0591
X5.1378Y-5.8465
X5.1378Y-8.5236
X5.1575Y-2.3838
X5.1575Y-3.2462
X5.1575Y-4.9803
X5.2559Y-8.1693
X5.2854Y-2.5295
X5.3051Y-8.0315
X5.3346Y-3.2462
X5.4035Y-3.0315
X5.4134Y-4.2126
X5.4134Y-6.7913
X5.4331Y-5.9094
X5.4626Y-5.6496
X5.4823Y-7.8642
X5.502Y-6.0236
X5.5118Y-2.9429
X5.5118Y-6.8898
X5.5217Y-5.1476
X5.5512Y-3.248
X5.5512Y-4.9311
X5.561Y-7.6673
X5.5709Y-7.9035
X5.5778Y-4.5541
X5.5787Y-6.2913
X5.6024Y-4.5374
X5.6024Y-6.2691
X5.6102Y-3.5934
X5.6102Y-3.622
X5.6102Y-3.6614
X5.6102Y-3.6909
X5.6201Y-1.811
X5.628Y-4.5591
X5.6299Y-3.4646
X5.6299Y-4.1732
X5.6299Y-6.2894
X5.6535Y-4.5413
X5.6535Y-6.2717
X5.6594Y-5.0197
X5.6594Y-5.0591
X5.7382Y-2.9429
X5.8169Y-5.8858
X5.8366Y-6.063
X5.8465Y-5.0787
X5.876Y-4.9803
X5.8858Y-3.1299
X5.8858Y-3.5934
X5.8858Y-3.622
X5.8858Y-3.6614
X5.8858Y-3.6909
X5.8858Y-5.0984
X5.935Y-7.7953
X6.0039Y-3.248
X6.0039Y-4.1929
X6.0039Y-4.9803
X6.0039Y-5.0591
X6.0039Y-5.9252
X6.0039Y-8.5236
X6.0236Y-2.3819
X6.0236Y-4.1142
X6.752Y-6.7913
X6.8504Y-5.3937
X6.8701Y-4.1929
X6.8701Y-4.9803
X6.8701Y-5.0591
X6.8701Y-5.9252
X6.8701Y-8.5236
X6.8898Y-2.3819
X6.8898Y-4.1142
X6.8996Y-3.248
X6.9094Y-2.815
X6.9488Y-8.0118
X7.7362Y-4.1929
X7.7362Y-4.9803
X7.7362Y-5.0591
X7.7362Y-5.9252
X7.7362Y-8.5236
X7.7461Y-3.248
X7.7559Y-2.3819
X7.7559Y-4.1142
X8.5984Y-2.3819
X8.6024Y-4.1929
X8.6024Y-4.9803
X8.6024Y-5.0591
X8.6024Y-5.9252
X8.6024Y-8.5236
X8.6122Y-3.248
X8.6319Y-4.1142
X8.7087Y-2.3622
X9.2126Y-8.6516
T2
X2.2244Y-1.7717
X2.2244Y-1.8504
X2.3819Y-1.7717
X2.3819Y-1.8504
T3
X1.8504Y-8.0709
X1.8898Y-6.3386
X1.9685Y-4.6063
X2.0079Y-3.0315
X2.0914Y-4.6056
X2.0934Y-6.3426
X2.0941Y-8.0764
X2.0949Y-3.0299
X2.1654Y-2.3228
X2.1654Y-2.4803
X2.2441Y-2.2835
X2.2638Y-8.7106
X2.3228Y-2.2441
X2.4016Y-2.2015
X2.4016Y-2.8882
X2.5345Y-2.758
X2.5354Y-3.3307
X2.5363Y-3.5009
X2.5394Y-2.6772
X2.5394Y-6.7913
X2.5394Y-8.7106
X2.5492Y-7.5787
X2.5492Y-8.4449
X2.5591Y-6.7126
X2.5984Y-2.5394
X3.0118Y-6.0236
X3.0217Y-6.8996
X3.0315Y-5.1476
X3.0315Y-8.6319
X3.0413Y-2.5984
X3.0413Y-4.2913
X3.0413Y-7.7657
X3.061Y-3.4252
X3.4055Y-3.3268
X3.4055Y-6.7913
X3.4154Y-7.5787
X3.4252Y-6.7126
X3.4252Y-8.4449
X3.4449Y-3.2403
X3.878Y-8.6122
X3.8976Y-2.5787
X3.8976Y-7.7559
X3.9173Y-6.0236
X3.9272Y-3.4252
X3.9272Y-5.128
X3.937Y-4.2618
X3.937Y-6.9094
X4.2717Y-3.3268
X4.2717Y-6.7913
X4.2815Y-7.5787
X4.2913Y-6.7126
X4.2913Y-8.4449
X4.311Y-3.2403
X4.7441Y-8.622
X4.7736Y-5.1476
X4.7736Y-7.7362
X4.7835Y-5.9941
X4.7933Y-2.5787
X4.7933Y-3.4154
X4.8031Y-4.2815
X4.8031Y-6.8996
X5.1378Y-3.3268
X5.1378Y-6.7913
X5.1476Y-7.5787
X5.1575Y-6.7126
X5.1575Y-8.4449
X5.4173Y-2.6535
X5.4528Y-6.752
X5.4646Y-2.4016
X5.5774Y-8.0217
X5.597Y-2.7887
X5.6022Y-7.9898
X5.6201Y-5.4724
X5.6201Y-5.5129
X5.6201Y-8.622
X5.6254Y-2.7599
X5.626Y-5.291
X5.6286Y-8.025
X5.6299Y-6.8504
X5.6299Y-6.9871
X5.6299Y-7.0276
X5.6299Y-7.1457
X5.6299Y-7.1861
X5.6305Y-5.2508
X5.6496Y-3.3661
X5.654Y-2.7313
X5.6575Y-7.9921
X5.6753Y-4.7771
X5.6773Y-6.4512
X5.6788Y-6.1654
X5.68Y-3.0403
X5.681Y-4.4511
X5.6826Y-2.7027
X5.685Y-7.8661
X5.704Y-4.7486
X5.7086Y-3.0117
X5.7088Y-4.4805
X5.7103Y-6.4746
X5.7103Y-7.9055
X5.7112Y-2.6741
X5.7135Y-6.186
X5.7434Y-3.1778
X5.748Y-2.6575
X5.7535Y-2.5142
X5.7559Y-4.9291
X5.7559Y-6.6535
X5.7874Y-2.4016
X5.7927Y-3.1915
X5.7953Y-4.4409
X5.7953Y-6.1575
X5.8012Y-2.7264
X5.8031Y-6.6614
X5.8031Y-7.8583
X5.8051Y-4.9427
X5.8229Y-4.4803
X5.8229Y-6.1969
X5.8268Y-2.7598
X5.8268Y-3.3661
X5.8284Y-6.8166
X5.8284Y-7.0472
X5.8284Y-7.9055
X5.8366Y-6.8996
X5.8366Y-6.9685
X5.8465Y-8.4449
X5.8661Y-5.2942
X5.8661Y-5.3346
X5.8661Y-6.7126
X5.876Y-2.6378
X5.876Y-5.4724
X5.876Y-5.5129
X5.9055Y-7.1457
X5.9055Y-7.1861
X5.9547Y-7.0177
X6.0039Y-2.4606
X6.0039Y-3.3268
X6.0039Y-6.7913
X6.0039Y-6.9685
X6.0039Y-7.6575
X6.0236Y-5.8465
X6.0236Y-6.7126
X6.0236Y-7.5787
X6.0236Y-8.4449
X6.4862Y-8.6024
X6.4961Y-2.5591
X6.4961Y-6.8799
X6.4961Y-7.7461
X6.5157Y-6.0236
X6.5256Y-3.4055
X6.5256Y-4.2815
X6.5256Y-5.1575
X6.8701Y-2.4606
X6.8701Y-3.3268
X6.8701Y-6.7913
X6.8701Y-7.6575
X6.8898Y-5.8465
X6.8898Y-6.7126
X6.9094Y-7.5787
X6.9094Y-8.4449
X7.3622Y-7.7362
X7.372Y-6.0335
X7.372Y-6.8898
X7.372Y-8.6319
X7.3819Y-2.5492
X7.3917Y-4.2815
X7.3917Y-5.1476
X7.4114Y-3.4252
X7.7362Y-2.4606
X7.7362Y-3.3268
X7.7362Y-6.7913
X7.7362Y-7.6575
X7.7559Y-5.8465
X7.7559Y-6.7126
X7.7559Y-7.5787
X7.7559Y-8.4449
X8.2283Y-5.1772
X8.2283Y-7.7461
X8.2382Y-6.0138
X8.2382Y-6.8898
X8.248Y-2.5492
X8.248Y-4.2913
X8.2776Y-8.6024
X8.2972Y-2.8248
X8.2972Y-3.4252
X8.3366Y-2.8543
X8.6024Y-2.4606
X8.6024Y-3.3268
X8.6024Y-6.7913
X8.6024Y-7.6575
X8.622Y-5.8465
X8.6417Y-6.7126
X8.6417Y-7.5787
X8.6417Y-8.4449
T5
X8.5258Y-2.2104
X8.5758Y-2.3104
X8.6258Y-2.2104
X8.6758Y-2.3104
X8.7258Y-2.2104
X8.7758Y-2.3104
X8.8258Y-2.2104
X8.8758Y-2.3104
T6
X3.5781Y-1.9917
X3.5781Y-2.7917
X3.6781Y-1.9917
X3.6781Y-2.7917
X3.7781Y-1.9917
X3.7781Y-2.7917
X3.8781Y-1.9917
X3.8781Y-2.7917
X3.9781Y-1.9917
X3.9781Y-2.7917
X4.078Y-1.8224
X4.0781Y-1.9917
X4.0781Y-2.7917
X4.178Y-1.8224
X4.1781Y-1.9917
X4.1781Y-2.7917
X4.2776Y-2.9606
X4.278Y-1.8224
X4.2781Y-1.9917
X4.2781Y-2.7917
X4.3776Y-2.9606
X4.378Y-1.8224
X4.3781Y-1.9917
X4.3781Y-2.7917
X4.4776Y-2.9606
X4.478Y-1.8224
X4.4781Y-1.9917
X4.4781Y-2.7917
X4.5776Y-2.9606
X4.5781Y-1.9917
X4.5781Y-2.7917
X4.6776Y-2.9606
X4.6781Y-1.9917
X4.6781Y-2.7917
X4.7776Y-2.9606
X4.7781Y-1.9917
X4.7781Y-2.7917
X4.8781Y-1.9917
X4.8781Y-2.7917
X5.489Y-2.0472
X5.589Y-2.0472
X5.689Y-2.0472
X9.1339Y-2.189
X9.1339Y-2.289
X9.1339Y-2.389
X9.1339Y-2.489
T7
X8.4057Y-1.8404
X8.9959Y-1.8404
T8
X1.9291Y-1.9291
X1.9327Y-9.2555
X9.252Y-1.9291
X9.252Y-9.252
T4
G00X2.1327Y-1.7803
M15
G01X2.1327Y-1.8118
M16
G05
G00X2.1327Y-1.9398
M15
G01X2.1327Y-1.9831
M16
G05
G00X2.4736Y-1.7803
M15
G01X2.4736Y-1.8118
M16
G05
G00X2.4736Y-1.9398
M15
G01X2.4736Y-1.9831
M16
G05
M30
